<svg width="360" height="630" viewBox="0 0 360 630" fill="none" xmlns="http://www.w3.org/2000/svg">
<g clip-path="url(#clip0_353_3191)">
<rect width="360" height="630" fill="white"/>
<g clip-path="url(#paint0_diamond_353_3191_clip_path)" data-figma-skip-parse="true"><g transform="matrix(0.095 0.505 -0.288571 0.0542857 85 125)"><rect x="0" y="0" width="1067.03" height="1003.08" fill="url(#paint0_diamond_353_3191)" opacity="1" shape-rendering="crispEdges"/><rect x="0" y="0" width="1067.03" height="1003.08" transform="scale(1 -1)" fill="url(#paint0_diamond_353_3191)" opacity="1" shape-rendering="crispEdges"/><rect x="0" y="0" width="1067.03" height="1003.08" transform="scale(-1 1)" fill="url(#paint0_diamond_353_3191)" opacity="1" shape-rendering="crispEdges"/><rect x="0" y="0" width="1067.03" height="1003.08" transform="scale(-1)" fill="url(#paint0_diamond_353_3191)" opacity="1" shape-rendering="crispEdges"/></g></g><rect width="360" height="630" data-figma-gradient-fill="{&#34;type&#34;:&#34;GRADIENT_DIAMOND&#34;,&#34;stops&#34;:[{&#34;color&#34;:{&#34;r&#34;:0.99607843160629272,&#34;g&#34;:0.48235294222831726,&#34;b&#34;:0.21960784494876862,&#34;a&#34;:1.0},&#34;position&#34;:0.0},{&#34;color&#34;:{&#34;r&#34;:0.98039215803146362,&#34;g&#34;:0.47058823704719543,&#34;b&#34;:0.32156863808631897,&#34;a&#34;:1.0},&#34;position&#34;:0.61156195402145386},{&#34;color&#34;:{&#34;r&#34;:0.99607843160629272,&#34;g&#34;:0.25882354378700256,&#34;b&#34;:0.21960784494876862,&#34;a&#34;:1.0},&#34;position&#34;:1.0}],&#34;stopsVar&#34;:[],&#34;transform&#34;:{&#34;m00&#34;:189.99993896484375,&#34;m01&#34;:-577.1428222656250,&#34;m02&#34;:278.57144165039062,&#34;m10&#34;:1010.0,&#34;m11&#34;:108.57141113281250,&#34;m12&#34;:-434.28570556640625},&#34;opacity&#34;:1.0,&#34;blendMode&#34;:&#34;NORMAL&#34;,&#34;visible&#34;:true}"/>
<path d="M80.934 236.224C78.694 236.224 76.486 234.48 76.486 230.144C76.486 225.84 78.758 223.872 81.222 223.872C82.79 223.872 83.942 224.528 84.694 225.296L83.19 226.976C82.806 226.56 82.07 226.144 81.414 226.144C80.102 226.144 79.078 227.152 79.078 230.144C79.078 233.248 79.974 234.096 80.87 234.096C81.622 234.096 82.262 233.536 82.262 232.176C82.262 230.88 81.606 230.448 80.822 230.448C80.23 230.448 79.574 230.752 79.094 231.616L78.966 229.776C79.542 228.928 80.646 228.448 81.366 228.448C83.35 228.448 84.854 229.6 84.854 232.176C84.854 234.704 83.062 236.224 80.934 236.224ZM90.684 236.224C88.444 236.224 86.236 234.48 86.236 230.144C86.236 225.84 88.508 223.872 90.972 223.872C92.54 223.872 93.692 224.528 94.444 225.296L92.94 226.976C92.556 226.56 91.82 226.144 91.164 226.144C89.852 226.144 88.828 227.152 88.828 230.144C88.828 233.248 89.724 234.096 90.62 234.096C91.372 234.096 92.012 233.536 92.012 232.176C92.012 230.88 91.356 230.448 90.572 230.448C89.98 230.448 89.324 230.752 88.844 231.616L88.716 229.776C89.292 228.928 90.396 228.448 91.116 228.448C93.1 228.448 94.604 229.6 94.604 232.176C94.604 234.704 92.812 236.224 90.684 236.224ZM100.05 222.88C102.37 222.88 104.13 224.336 104.13 226.368C104.13 228.384 102.37 229.84 100.05 229.84C97.73 229.84 95.97 228.384 95.97 226.368C95.97 224.336 97.73 222.88 100.05 222.88ZM100.05 224.96C99.138 224.96 98.466 225.424 98.466 226.368C98.466 227.312 99.138 227.776 100.05 227.776C100.962 227.776 101.634 227.312 101.634 226.368C101.634 225.424 100.962 224.96 100.05 224.96ZM105.794 222.512H108.386V229.92H105.794V222.512ZM98.21 230.464H108.386V234.832H100.77V236.416H98.226V232.992H105.826V232.432H98.21V230.464ZM98.226 235.392H108.69V237.376H98.226V235.392ZM110.561 229.376H124.145V231.408H110.561V229.376ZM116.065 227.2H118.641V230.144H116.065V227.2ZM112.161 226.384H122.625V228.4H112.161V226.384ZM112.161 223.12H122.561V225.136H114.721V227.696H112.161V223.12ZM117.281 231.968C120.545 231.968 122.529 232.976 122.529 234.768C122.529 236.544 120.545 237.552 117.281 237.552C114.017 237.552 112.033 236.544 112.033 234.768C112.033 232.976 114.017 231.968 117.281 231.968ZM117.281 233.904C115.457 233.904 114.641 234.144 114.641 234.768C114.641 235.392 115.457 235.616 117.281 235.616C119.105 235.616 119.921 235.392 119.921 234.768C119.921 234.144 119.105 233.904 117.281 233.904ZM134.576 222.512H137.152V233.344H134.576V222.512ZM136.448 226.656H139.024V228.768H136.448V226.656ZM127.296 235.248H137.616V237.296H127.296V235.248ZM127.296 232.208H129.888V236.192H127.296V232.208ZM129.424 223.408C131.76 223.408 133.6 225.04 133.6 227.296C133.6 229.52 131.76 231.168 129.424 231.168C127.088 231.168 125.264 229.52 125.264 227.296C125.264 225.04 127.088 223.408 129.424 223.408ZM129.424 225.648C128.512 225.648 127.776 226.192 127.776 227.296C127.776 228.368 128.512 228.928 129.424 228.928C130.352 228.928 131.072 228.368 131.072 227.296C131.072 226.192 130.352 225.648 129.424 225.648ZM153.464 222.704H155.144V230.448H153.464V222.704ZM154.68 225.92H157.208V227.296H154.68V225.92ZM149.368 223.712H151.224C151.224 227.472 148.76 229.808 144.408 230.72L143.736 229.376C147.576 228.624 149.368 226.816 149.368 224.688V223.712ZM144.376 223.712H150.392V225.056H144.376V223.712ZM145.784 231.072H155.208V232.32H147.448V236.528H145.784V231.072ZM145.784 235.904H155.528V237.152H145.784V235.904ZM146.904 233.472H155.048V234.688H146.904V233.472ZM158.439 230.288H171.655V231.632H158.439V230.288ZM160.103 235.68H170.183V237.04H160.103V235.68ZM160.103 232.784H161.783V236.096H160.103V232.784ZM165.047 223.168C168.199 223.168 170.263 224.288 170.263 226.128C170.263 227.968 168.199 229.088 165.047 229.088C161.895 229.088 159.847 227.968 159.847 226.128C159.847 224.288 161.895 223.168 165.047 223.168ZM165.047 224.512C162.903 224.512 161.575 225.104 161.575 226.128C161.575 227.168 162.903 227.744 165.047 227.744C167.207 227.744 168.535 227.168 168.535 226.128C168.535 225.104 167.207 224.512 165.047 224.512ZM187.551 222.704H189.135V231.92H187.551V222.704ZM185.423 226.512H187.999V227.888H185.423V226.512ZM184.463 222.992H186.031V231.408H184.463V222.992ZM176.687 224.336H183.951V225.648H176.687V224.336ZM180.335 226.272C182.175 226.272 183.471 227.296 183.471 228.8C183.471 230.32 182.175 231.328 180.335 231.328C178.511 231.328 177.199 230.32 177.199 228.8C177.199 227.296 178.511 226.272 180.335 226.272ZM180.335 227.504C179.359 227.504 178.703 228 178.703 228.8C178.703 229.616 179.359 230.112 180.335 230.112C181.311 230.112 181.967 229.616 181.967 228.8C181.967 228 181.311 227.504 180.335 227.504ZM179.503 222.832H181.151V225.168H179.503V222.832ZM184.271 232.128C187.359 232.128 189.215 233.056 189.215 234.72C189.215 236.368 187.359 237.312 184.271 237.312C181.183 237.312 179.327 236.368 179.327 234.72C179.327 233.056 181.183 232.128 184.271 232.128ZM184.271 233.392C182.159 233.392 180.991 233.84 180.991 234.72C180.991 235.584 182.159 236.048 184.271 236.048C186.367 236.048 187.535 235.584 187.535 234.72C187.535 233.84 186.367 233.392 184.271 233.392ZM191.486 229.76H204.702V231.104H191.486V229.76ZM197.262 227.488H198.926V230.304H197.262V227.488ZM193.118 226.96H203.182V228.288H193.118V226.96ZM193.118 223.36H203.086V224.688H194.782V227.776H193.118V223.36ZM198.062 232.016C201.198 232.016 203.102 232.976 203.102 234.672C203.102 236.368 201.198 237.328 198.062 237.328C194.926 237.328 193.022 236.368 193.022 234.672C193.022 232.976 194.926 232.016 198.062 232.016ZM198.062 233.296C195.918 233.296 194.718 233.776 194.718 234.672C194.718 235.568 195.918 236.032 198.062 236.032C200.206 236.032 201.406 235.568 201.406 234.672C201.406 233.776 200.206 233.296 198.062 233.296ZM212.797 222.928C216.077 222.928 218.013 223.824 218.013 225.456C218.013 227.072 216.077 227.968 212.797 227.968C209.517 227.968 207.597 227.072 207.597 225.456C207.597 223.824 209.517 222.928 212.797 222.928ZM212.797 224.176C210.541 224.176 209.325 224.624 209.325 225.456C209.325 226.288 210.541 226.72 212.797 226.72C215.069 226.72 216.269 226.288 216.269 225.456C216.269 224.624 215.069 224.176 212.797 224.176ZM206.189 228.816H219.405V230.144H206.189V228.816ZM207.757 231.216H217.757V234.704H209.437V236.272H207.773V233.52H216.109V232.464H207.757V231.216ZM207.773 235.904H218.173V237.2H207.773V235.904ZM234.245 222.72H235.925V233.456H234.245V222.72ZM235.429 226.992H237.989V228.384H235.429V226.992ZM226.677 235.68H236.517V237.04H226.677V235.68ZM226.677 232.4H228.357V235.984H226.677V232.4ZM225.029 223.76H226.693V226.048H230.261V223.76H231.909V231.072H225.029V223.76ZM226.693 227.344V229.744H230.261V227.344H226.693ZM239.22 230.096H252.436V231.456H239.22V230.096ZM244.996 228.064H246.66V230.448H244.996V228.064ZM240.692 232.704H250.82V237.328H249.156V234.032H240.692V232.704ZM240.948 223.056H242.596V224.544H249.076V223.056H250.74V228.608H240.948V223.056ZM242.596 225.824V227.28H249.076V225.824H242.596ZM263.619 222.704H265.283V237.328H263.619V222.704ZM264.899 228.576H267.555V229.968H264.899V228.576ZM253.875 224.96H262.451V226.304H253.875V224.96ZM258.211 227.36C260.291 227.36 261.827 228.768 261.827 230.768C261.827 232.784 260.291 234.192 258.211 234.192C256.115 234.192 254.579 232.784 254.579 230.768C254.579 228.768 256.115 227.36 258.211 227.36ZM258.211 228.736C257.027 228.736 256.179 229.536 256.179 230.768C256.179 232 257.027 232.816 258.211 232.816C259.379 232.816 260.227 232 260.227 230.768C260.227 229.536 259.379 228.736 258.211 228.736ZM257.347 222.912H259.027V225.52H257.347V222.912ZM275.698 225.152H279.602V226.512H275.698V225.152ZM275.698 228.288H279.65V229.648H275.698V228.288ZM269.298 223.936H276.082V230.912H269.298V223.936ZM274.434 225.264H270.946V229.584H274.434V225.264ZM279.106 222.72H280.786V233.376H279.106V222.72ZM271.266 235.68H281.122V237.04H271.266V235.68ZM271.266 232.4H272.946V236.352H271.266V232.4ZM81.3588 251.76H86.1588V254.34H81.3588V251.76ZM81.3588 257.52H86.1588V260.1H81.3588V257.52ZM78.2188 249.34C81.0588 249.34 83.1588 251.96 83.1588 256.12C83.1588 260.32 81.0588 262.94 78.2188 262.94C75.3788 262.94 73.2788 260.32 73.2788 256.12C73.2788 251.96 75.3788 249.34 78.2188 249.34ZM78.2188 252.28C77.0988 252.28 76.3388 253.5 76.3388 256.12C76.3388 258.78 77.0988 260 78.2188 260C79.3588 260 80.0988 258.78 80.0988 256.12C80.0988 253.5 79.3588 252.28 78.2188 252.28ZM85.6988 248.1H88.9188V266.94H85.6988V248.1ZM104.037 248.1H107.257V266.94H104.037V248.1ZM101.437 254.62H104.657V257.2H101.437V254.62ZM92.0173 260.04H93.6173C96.5173 260.04 98.9573 260 101.657 259.56L101.937 262.16C99.1773 262.6 96.5973 262.68 93.6173 262.68H92.0173V260.04ZM91.9973 249.62H100.477V256.94H95.2173V260.82H92.0173V254.42H97.2973V252.16H91.9973V249.62ZM109.796 257.56H126.776V260.08H109.796V257.56ZM116.956 258.94H120.196V262.7H116.956V258.94ZM111.656 264.06H124.916V266.62H111.656V264.06ZM111.656 261.42H114.876V265.18H111.656V261.42ZM111.916 248.72H115.096V250.38H121.456V248.72H124.656V256.54H111.916V248.72ZM115.096 252.78V254.06H121.456V252.78H115.096ZM128.234 255.1H145.214V257.62H128.234V255.1ZM130.234 251.86H143.214V254.36H130.234V251.86ZM130.234 248.34H143.074V250.88H133.434V254.08H130.234V248.34ZM130.074 258.36H143.174V263.64H133.274V264.84H130.094V261.4H139.994V260.76H130.074V258.36ZM130.094 264.34H143.634V266.78H130.094V264.34ZM152.613 249.3C155.573 249.3 157.853 251.3 157.853 254.04C157.853 256.78 155.573 258.78 152.613 258.78C149.653 258.78 147.353 256.78 147.353 254.04C147.353 251.3 149.653 249.3 152.613 249.3ZM152.613 252.06C151.433 252.06 150.513 252.72 150.513 254.04C150.513 255.36 151.433 256.04 152.613 256.04C153.773 256.04 154.693 255.36 154.693 254.04C154.693 252.72 153.773 252.06 152.613 252.06ZM159.233 248.1H162.453V266.94H159.233V248.1ZM147.033 263.3L146.673 260.72C149.893 260.72 154.433 260.68 158.313 260.12L158.533 262.44C154.553 263.24 150.233 263.3 147.033 263.3ZM171.461 259.36H174.641V260.62H181.261V259.36H184.441V266.72H171.461V259.36ZM174.641 263V264.22H181.261V263H174.641ZM169.561 256.12H186.541V258.64H169.561V256.12ZM176.401 248.32H179.161V248.74C179.161 252.02 176.841 254.9 171.461 255.54L170.321 253.06C175.021 252.54 176.401 250.4 176.401 248.74V248.32ZM176.941 248.32H179.701V248.74C179.701 250.4 181.081 252.54 185.781 253.06L184.641 255.54C179.261 254.9 176.941 252.02 176.941 248.74V248.32ZM188.7 249.44H196.58V252H188.7V249.44ZM190.74 253.92H193.92V258.62H190.74V253.92ZM195.32 249.44H198.5V250.72C198.5 252.08 198.5 253.92 198.08 256.2L194.96 255.84C195.32 253.64 195.32 252.06 195.32 250.72V249.44ZM199.92 248.12H203.16V262.12H199.92V248.12ZM201.94 253.64H205.16V256.26H201.94V253.64ZM190.28 264.06H203.76V266.62H190.28V264.06ZM190.28 260.9H193.52V264.86H190.28V260.9ZM187.9 259.88L187.62 257.34C190.82 257.34 195.28 257.3 199.04 256.76L199.24 259.04C195.38 259.78 191.08 259.86 187.9 259.88ZM219.518 248.36H221.618V266.68H219.518V248.36ZM211.878 249.72C214.618 249.72 216.598 252.22 216.598 256.16C216.598 260.1 214.618 262.62 211.878 262.62C209.158 262.62 207.178 260.1 207.178 256.16C207.178 252.22 209.158 249.72 211.878 249.72ZM211.878 251.62C210.278 251.62 209.178 253.32 209.178 256.16C209.178 259.02 210.278 260.74 211.878 260.74C213.478 260.74 214.578 259.02 214.578 256.16C214.578 253.32 213.478 251.62 211.878 251.62ZM234.449 254.54H236.549V257.54H234.449V254.54ZM242.469 248.38H244.569V258.94H242.469V248.38ZM229.789 258.62L229.509 256.96C232.829 256.96 237.309 256.92 241.129 256.38L241.269 257.84C237.349 258.54 233.029 258.6 229.789 258.62ZM231.109 253.5H239.929V255.16H231.109V253.5ZM231.109 249.26H239.789V250.94H233.209V254.08H231.109V249.26ZM232.409 259.72H234.489V261.4H242.489V259.72H244.569V266.44H232.409V259.72ZM234.489 263V264.76H242.489V263H234.489ZM260.867 248.38H262.947V266.66H260.867V248.38ZM248.927 250.14H251.007V261.48H248.927V250.14ZM248.927 260.24H250.487C253.207 260.24 256.127 260.04 259.187 259.42L259.427 261.18C256.267 261.84 253.327 262.04 250.487 262.04H248.927V260.24ZM278.326 248.36H280.426V266.68H278.326V248.36ZM279.946 255.38H283.266V257.12H279.946V255.38ZM267.006 260.46H268.486C271.726 260.46 274.126 260.34 276.826 259.84L277.046 261.6C274.246 262.1 271.806 262.2 268.486 262.2H267.006V260.46ZM267.006 250.1H275.506V251.8H269.086V261.26H267.006V250.1ZM286.724 265.28C285.844 265.28 285.184 264.6 285.184 263.66C285.184 262.7 285.844 262.04 286.724 262.04C287.584 262.04 288.264 262.7 288.264 263.66C288.264 264.6 287.584 265.28 286.724 265.28Z" fill="white"/>
<path d="M77.7011 319V316.696H80.2291V309.928H78.0371V308.168C79.3171 307.928 80.1491 307.608 80.9811 307.08H83.0771V316.696H85.2211V319H77.7011ZM96.0911 305.512H98.6671V316.344H96.0911V305.512ZM97.9631 309.4H100.539V311.496H97.9631V309.4ZM87.2591 311.944H88.5551C91.9151 311.944 93.4671 311.88 95.1471 311.512L95.3871 313.528C93.6911 313.928 92.0111 314.008 88.5551 314.008H87.2591V311.944ZM87.2591 306.632H94.0271V308.68H89.8351V313.032H87.2591V306.632ZM88.8111 318.248H99.1311V320.296H88.8111V318.248ZM88.8111 315.176H91.4031V319.32H88.8111V315.176ZM107.258 309.352H110.138V311.384H107.258V309.352ZM107.194 313.08H110.074V315.128H107.194V313.08ZM112.058 305.496H114.506V320.504H112.058V305.496ZM108.922 305.784H111.322V319.896H108.922V305.784ZM105.514 307.192H107.978C107.978 311.64 106.858 314.984 102.602 317.464L101.162 315.672C104.49 313.656 105.514 311.416 105.514 307.736V307.192ZM102.122 307.192H106.33V309.24H102.122V307.192ZM120.017 314.248H133.265V315.592H120.017V314.248ZM125.761 314.904H127.425V320.328H125.761V314.904ZM121.617 306.28H123.281V308.136H129.969V306.28H131.633V312.664H121.617V306.28ZM123.281 309.464V311.32H129.969V309.464H123.281ZM145.216 305.688H146.88V320.344H145.216V305.688ZM142.416 311.048H145.44V312.424H142.416V311.048ZM135.408 315.56H136.544C139.152 315.56 140.912 315.512 142.976 315.16L143.136 316.504C141.024 316.856 139.2 316.92 136.544 316.92H135.408V315.56ZM135.408 306.984H142.176V308.36H137.072V316.008H135.408V306.984ZM136.672 311.08H141.6V312.408H136.672V311.08ZM156.951 319.224C155.047 319.224 153.735 318.504 152.791 317.576L154.087 315.784C154.759 316.424 155.591 316.92 156.535 316.92C157.687 316.92 158.407 316.296 158.407 315.064C158.407 313.864 157.687 313.224 156.663 313.224C156.007 313.224 155.687 313.352 154.983 313.8L153.735 312.984L154.039 307.08H160.727V309.464H156.487L156.311 311.48C156.743 311.304 157.095 311.24 157.543 311.24C159.559 311.24 161.255 312.424 161.255 315C161.255 317.672 159.239 319.224 156.951 319.224ZM172.029 305.512H174.605V316.344H172.029V305.512ZM173.901 309.4H176.477V311.496H173.901V309.4ZM163.197 311.944H164.493C167.853 311.944 169.405 311.88 171.085 311.512L171.325 313.528C169.629 313.928 167.949 314.008 164.493 314.008H163.197V311.944ZM163.197 306.632H169.965V308.68H165.773V313.032H163.197V306.632ZM164.749 318.248H175.069V320.296H164.749V318.248ZM164.749 315.176H167.341V319.32H164.749V315.176ZM183.195 309.352H186.075V311.384H183.195V309.352ZM183.131 313.08H186.011V315.128H183.131V313.08ZM187.995 305.496H190.443V320.504H187.995V305.496ZM184.859 305.784H187.259V319.896H184.859V305.784ZM181.451 307.192H183.915C183.915 311.64 182.795 314.984 178.539 317.464L177.099 315.672C180.427 313.656 181.451 311.416 181.451 307.736V307.192ZM178.059 307.192H182.267V309.24H178.059V307.192ZM201.578 305.496H204.154V320.504H201.578V305.496ZM203.37 311.192H205.946V313.32H203.37V311.192ZM194.106 306.984H196.522C196.522 311.432 196.346 314.472 193.706 317.496L191.706 316.04C193.93 313.496 194.106 311.336 194.106 307.288V306.984ZM192.474 306.984H195.13V309.048H192.474V306.984ZM198.266 306.984H200.682C200.682 311.736 200.41 315.176 197.882 318.424L195.882 317C197.994 314.152 198.266 311.736 198.266 307.272V306.984ZM197.05 306.984H199.338V309.048H197.05V306.984ZM210.281 307.992H212.329V309.272C212.329 312.888 211.193 316.392 208.137 317.736L206.681 315.704C209.385 314.52 210.281 311.784 210.281 309.272V307.992ZM210.873 307.992H212.905V309.272C212.905 311.64 213.785 314.232 216.457 315.32L215.065 317.352C211.993 316.072 210.873 312.728 210.873 309.272V307.992ZM207.337 306.888H215.785V309H207.337V306.888ZM216.825 305.512H219.417V320.52H216.825V305.512ZM228.8 309.32H230.112V310.36C230.112 313.432 228.592 316.392 226.128 317.56L225.2 316.264C227.456 315.208 228.8 312.728 228.8 310.36V309.32ZM229.152 309.32H230.448V310.36C230.448 312.584 231.728 314.952 233.904 316.024L232.992 317.288C230.576 316.136 229.152 313.272 229.152 310.36V309.32ZM225.648 308.168H233.552V309.512H225.648V308.168ZM228.784 306.008H230.464V308.888H228.784V306.008ZM235.056 305.704H236.736V320.328H235.056V305.704ZM236.352 311.56H239.008V312.952H236.352V311.56ZM241.775 306.536H251.071V307.896H241.775V306.536ZM240.127 312.312H253.375V313.672H240.127V312.312ZM250.079 306.536H251.727V307.736C251.727 309.096 251.727 310.68 251.263 312.856L249.615 312.696C250.079 310.584 250.079 309.08 250.079 307.736V306.536ZM241.823 318.664H252.159V320.024H241.823V318.664ZM241.823 315.128H243.487V318.824H241.823V315.128ZM258.237 309.32H259.549V310.36C259.549 313.432 258.029 316.392 255.565 317.56L254.637 316.264C256.893 315.208 258.237 312.728 258.237 310.36V309.32ZM258.589 309.32H259.885V310.36C259.885 312.584 261.165 314.952 263.341 316.024L262.429 317.288C260.013 316.136 258.589 313.272 258.589 310.36V309.32ZM255.085 308.168H262.989V309.512H255.085V308.168ZM258.221 306.008H259.901V308.888H258.221V306.008ZM264.493 305.704H266.173V320.328H264.493V305.704ZM265.789 311.56H268.445V312.952H265.789V311.56ZM271.212 306.536H280.508V307.896H271.212V306.536ZM269.564 312.312H282.812V313.672H269.564V312.312ZM279.516 306.536H281.164V307.736C281.164 309.096 281.164 310.68 280.7 312.856L279.052 312.696C279.516 310.584 279.516 309.08 279.516 307.736V306.536ZM271.26 318.664H281.596V320.024H271.26V318.664ZM271.26 315.128H272.924V318.824H271.26V315.128ZM88.2309 328.688H89.9109V343.344H88.2309V328.688ZM85.3509 333.92H88.6789V335.28H85.3509V333.92ZM81.3349 330.88H82.6789V332.688C82.6789 336.016 81.0949 339.264 78.5989 340.528L77.6069 339.2C79.8629 338.112 81.3349 335.328 81.3349 332.688V330.88ZM81.7029 330.88H83.0309V332.688C83.0309 335.184 84.4869 337.856 86.7429 338.912L85.7669 340.224C83.2549 339.008 81.7029 335.888 81.7029 332.688V330.88ZM78.1669 330.16H86.1989V331.52H78.1669V330.16ZM102.854 328.704H104.534V343.328H102.854V328.704ZM92.7896 340.624L92.5816 339.232C95.3016 339.232 98.8856 339.232 102.006 338.816L102.118 340.048C98.8696 340.608 95.4456 340.64 92.7896 340.624ZM92.8696 330.576H101.718V331.92H92.8696V330.576ZM97.2856 332.608C99.3816 332.608 100.838 333.712 100.838 335.376C100.838 337.024 99.3816 338.128 97.2856 338.128C95.2056 338.128 93.7656 337.024 93.7656 335.376C93.7656 333.712 95.2056 332.608 97.2856 332.608ZM97.2856 333.904C96.1336 333.904 95.3496 334.464 95.3496 335.376C95.3496 336.288 96.1336 336.848 97.2856 336.848C98.4536 336.848 99.2376 336.288 99.2376 335.376C99.2376 334.464 98.4536 333.904 97.2856 333.904ZM96.4376 328.864H98.1336V331.456H96.4376V328.864ZM110.724 336.096H112.404V339.568H110.724V336.096ZM111.556 329.616C113.796 329.616 115.46 331.056 115.46 333.12C115.46 335.184 113.796 336.624 111.556 336.624C109.284 336.624 107.636 335.184 107.636 333.12C107.636 331.056 109.284 329.616 111.556 329.616ZM111.556 331.04C110.228 331.04 109.268 331.856 109.268 333.12C109.268 334.384 110.228 335.2 111.556 335.2C112.868 335.2 113.828 334.384 113.828 333.12C113.828 331.856 112.868 331.04 111.556 331.04ZM116.9 328.704H118.58V343.328H116.9V328.704ZM118.084 334.592H120.724V335.984H118.084V334.592ZM107.268 340.272L107.044 338.912C109.636 338.896 113.108 338.896 116.052 338.496L116.18 339.728C113.124 340.272 109.78 340.288 107.268 340.272ZM135.261 328.704H136.941V336.448H135.261V328.704ZM136.477 331.92H139.005V333.296H136.477V331.92ZM131.165 329.712H133.021C133.021 333.472 130.557 335.808 126.205 336.72L125.533 335.376C129.373 334.624 131.165 332.816 131.165 330.688V329.712ZM126.173 329.712H132.189V331.056H126.173V329.712ZM127.581 337.072H137.005V338.32H129.245V342.528H127.581V337.072ZM127.581 341.904H137.325V343.152H127.581V341.904ZM128.701 339.472H136.845V340.688H128.701V339.472ZM150.604 328.688H152.284V343.344H150.604V328.688ZM144.492 329.776C146.684 329.776 148.268 331.776 148.268 334.928C148.268 338.08 146.684 340.096 144.492 340.096C142.316 340.096 140.732 338.08 140.732 334.928C140.732 331.776 142.316 329.776 144.492 329.776ZM144.492 331.296C143.212 331.296 142.332 332.656 142.332 334.928C142.332 337.216 143.212 338.592 144.492 338.592C145.772 338.592 146.652 337.216 146.652 334.928C146.652 332.656 145.772 331.296 144.492 331.296ZM163.923 332.992H166.499V334.96H163.923V332.992ZM163.443 329.648H165.683V329.984C165.683 331.904 164.019 333.552 159.731 333.792L158.947 331.872C162.563 331.712 163.443 330.672 163.443 329.984V329.648ZM164.803 329.648H167.043V329.984C167.043 330.688 167.907 331.712 171.539 331.872L170.755 333.792C166.467 333.552 164.803 331.936 164.803 329.984V329.648ZM159.683 328.816H170.819V330.752H159.683V328.816ZM159.651 337.408H170.787V339.312H159.651V337.408ZM158.467 334.128H172.051V336.144H158.467V334.128ZM165.203 339.584C168.115 339.584 169.827 340.288 169.827 341.568C169.827 342.848 168.115 343.536 165.203 343.536C162.291 343.536 160.579 342.848 160.579 341.568C160.579 340.288 162.291 339.584 165.203 339.584ZM165.203 341.248C163.859 341.248 163.267 341.296 163.267 341.568C163.267 341.824 163.859 341.872 165.203 341.872C166.547 341.872 167.155 341.824 167.155 341.568C167.155 341.296 166.547 341.248 165.203 341.248ZM163.923 336.528H166.499V338.512H163.923V336.528ZM173.169 336.032H186.753V338.064H173.169V336.032ZM174.753 341.248H185.217V343.296H174.753V341.248ZM174.753 338.896H177.329V341.92H174.753V338.896ZM179.969 328.912C183.265 328.912 185.489 330.128 185.489 332.048C185.489 334 183.265 335.2 179.969 335.2C176.673 335.2 174.449 334 174.449 332.048C174.449 330.128 176.673 328.912 179.969 328.912ZM179.969 330.944C178.129 330.944 177.121 331.28 177.121 332.048C177.121 332.832 178.129 333.168 179.969 333.168C181.809 333.168 182.817 332.832 182.817 332.048C182.817 331.28 181.809 330.944 179.969 330.944ZM193.064 337.488H195.608V338.496H200.904V337.488H203.448V343.376H193.064V337.488ZM195.608 340.4V341.376H200.904V340.4H195.608ZM191.544 334.896H205.128V336.912H191.544V334.896ZM197.016 328.656H199.224V328.992C199.224 331.616 197.368 333.92 193.064 334.432L192.152 332.448C195.912 332.032 197.016 330.32 197.016 328.992V328.656ZM197.448 328.656H199.656V328.992C199.656 330.32 200.76 332.032 204.52 332.448L203.608 334.432C199.304 333.92 197.448 331.616 197.448 328.992V328.656ZM206.855 329.552H213.159V331.6H206.855V329.552ZM208.487 333.136H211.031V336.896H208.487V333.136ZM212.151 329.552H214.695V330.576C214.695 331.664 214.695 333.136 214.359 334.96L211.863 334.672C212.151 332.912 212.151 331.648 212.151 330.576V329.552ZM215.831 328.496H218.423V339.696H215.831V328.496ZM217.447 332.912H220.023V335.008H217.447V332.912ZM208.119 341.248H218.903V343.296H208.119V341.248ZM208.119 338.72H210.711V341.888H208.119V338.72ZM206.215 337.904L205.991 335.872C208.551 335.872 212.119 335.84 215.127 335.408L215.287 337.232C212.199 337.824 208.759 337.888 206.215 337.904ZM225.326 329.968H232.158V336.864H225.326V329.968ZM230.51 331.312H226.974V335.536H230.51V331.312ZM234.542 328.704H236.222V339.392H234.542V328.704ZM235.726 333.056H238.286V334.432H235.726V333.056ZM226.974 341.68H236.814V343.04H226.974V341.68ZM226.974 338.368H228.654V342.32H226.974V338.368ZM239.533 334.608H252.749V335.952H239.533V334.608ZM241.229 332.272H251.181V333.616H241.229V332.272ZM241.229 329.088H251.037V330.432H242.893V333.392H241.229V329.088ZM241.085 337.024H251.085V340.656H242.765V342.24H241.101V339.44H249.437V338.32H241.085V337.024ZM241.101 341.872H251.501V343.184H241.101V341.872ZM258.188 329.776C260.348 329.776 261.884 331.776 261.884 334.928C261.884 338.08 260.348 340.096 258.188 340.096C256.028 340.096 254.492 338.08 254.492 334.928C254.492 331.776 256.028 329.776 258.188 329.776ZM258.188 331.296C256.94 331.296 256.092 332.656 256.092 334.928C256.092 337.216 256.94 338.592 258.188 338.592C259.452 338.592 260.3 337.216 260.3 334.928C260.3 332.656 259.452 331.296 258.188 331.296ZM264.716 328.688H266.38V343.344H264.716V328.688ZM261.372 334.144H265.436V335.488H261.372V334.144ZM272.058 336.192H273.722V340.432H272.058V336.192ZM277.418 336.192H279.098V340.432H277.418V336.192ZM268.97 340.16H282.218V341.536H268.97V340.16ZM275.562 329.536C278.682 329.536 280.938 331.04 280.938 333.376C280.938 335.696 278.682 337.2 275.562 337.2C272.442 337.2 270.186 335.696 270.186 333.376C270.186 331.04 272.442 329.536 275.562 329.536ZM275.562 330.848C273.354 330.848 271.818 331.824 271.818 333.376C271.818 334.912 273.354 335.888 275.562 335.888C277.77 335.888 279.306 334.912 279.306 333.376C279.306 331.824 277.77 330.848 275.562 330.848Z" fill="white"/>
<path d="M40.103 180.7C38.528 180.7 37.678 179.45 37.678 177.3C37.678 174.75 38.928 172.825 41.428 171.525L42.278 173.15C40.653 174.025 39.828 175.1 39.828 176.7C39.928 176.675 40.003 176.675 40.103 176.675C41.178 176.675 42.103 177.4 42.103 178.6C42.103 179.9 41.278 180.7 40.103 180.7ZM46.353 180.7C44.778 180.7 43.928 179.45 43.928 177.3C43.928 174.75 45.178 172.825 47.678 171.525L48.528 173.15C46.903 174.025 46.078 175.1 46.078 176.7C46.178 176.675 46.253 176.675 46.353 176.675C47.428 176.675 48.353 177.4 48.353 178.6C48.353 179.9 47.503 180.7 46.353 180.7ZM58.1829 181.95C57.1829 181.95 56.0079 182.5 55.1579 183.9C55.5079 187.275 56.7579 188.575 58.3079 188.575C59.6829 188.575 60.8329 187.425 60.8329 185.15C60.8329 182.975 59.7829 181.95 58.1829 181.95ZM58.3829 191.35C54.8579 191.35 51.7329 188.525 51.7329 182C51.7329 175.1 55.1579 172.15 58.8829 172.15C61.1579 172.15 62.7829 173.1 63.9079 174.25L61.9579 176.45C61.3079 175.7 60.1829 175.1 59.1079 175.1C56.9829 175.1 55.2329 176.7 55.0829 181.35C56.0829 180.1 57.6829 179.35 58.8829 179.35C61.9829 179.35 64.1829 181.2 64.1829 185.15C64.1829 188.95 61.5329 191.35 58.3829 191.35ZM72.9046 181.95C71.9046 181.95 70.7296 182.5 69.8796 183.9C70.2296 187.275 71.4796 188.575 73.0296 188.575C74.4046 188.575 75.5546 187.425 75.5546 185.15C75.5546 182.975 74.5046 181.95 72.9046 181.95ZM73.1046 191.35C69.5796 191.35 66.4546 188.525 66.4546 182C66.4546 175.1 69.8796 172.15 73.6046 172.15C75.8796 172.15 77.5046 173.1 78.6296 174.25L76.6796 176.45C76.0296 175.7 74.9046 175.1 73.8296 175.1C71.7046 175.1 69.9546 176.7 69.8046 181.35C70.8046 180.1 72.4046 179.35 73.6046 179.35C76.7046 179.35 78.9046 181.2 78.9046 185.15C78.9046 188.95 76.2546 191.35 73.1046 191.35ZM101.44 177.475V182.025H98.3903V170.55H101.44V174.875H103.165V170.125H106.29V182.175H103.165V177.475H101.44ZM98.0903 179.425L96.6903 181.85C94.6153 181.2 93.2153 179.95 92.3903 178.4C91.5653 180.1 90.1653 181.5 88.0653 182.225L86.6153 179.775C89.3153 178.775 90.6653 176.75 90.7903 174.85H87.2903V172.3H90.7903V170.25H93.9153V172.3H97.3903V174.85H93.9153C94.0403 176.7 95.3903 178.55 98.0903 179.425ZM93.9403 190.45H107.015V192.9H90.6903V186.775H103.04V185.475H90.6403V183.025H106.29V189.05H93.9403V190.45ZM128.763 170.125V187.1H125.463V170.125H128.763ZM123.613 180.825L123.938 183.45C120.713 184.05 117.763 184.2 112.863 184.2H110.838V176.55H118.163V174.275H110.813V171.625H121.413V179H114.088V181.55C118.163 181.525 120.763 181.35 123.613 180.825ZM116.663 190.125H129.338V192.75H113.363V185.675H116.663V190.125ZM141.561 175.05V176.325C141.561 180.075 143.411 184.05 147.261 185.65L145.461 188.25C142.786 187.1 140.961 184.85 139.936 182.075C138.911 185.075 137.061 187.6 134.361 188.825L132.486 186.2C136.336 184.475 138.211 180.25 138.211 176.325V175.05H133.411V172.325H146.311V175.05H141.561ZM148.436 170.125H151.736V193.15H148.436V170.125ZM179.549 175.85V177.925H164.149V170.95H179.324V173.025H166.699V175.85H179.549ZM166.524 188.8V190.7H180.024V192.7H163.974V186.925H176.849V185.175H163.924V183.2H179.374V188.8H166.524ZM161.549 179.475H181.974V181.55H161.549V179.475ZM190.597 185.625C192.547 185.625 193.872 183.525 193.872 179.95C193.872 176.45 192.547 174.325 190.597 174.325C188.672 174.325 187.347 176.45 187.347 179.95C187.347 183.525 188.672 185.625 190.597 185.625ZM200.672 170.325H203.272V192.975H200.672V180.85H196.297C195.997 185.225 193.697 187.925 190.597 187.925C187.272 187.925 184.897 184.85 184.897 179.95C184.897 175.1 187.272 172 190.597 172C193.622 172 195.922 174.6 196.272 178.75H200.672V170.325ZM212.37 177.725V181.425H223.07V177.725H212.37ZM218.995 188.05H227.97V190.175H207.52V188.05H216.42V183.5H209.82V171.85H212.37V175.65H223.07V171.85H225.62V183.5H218.995V188.05ZM246.643 183.475V179.275H242.543V177.175H246.643V174.925H242.543V172.85H246.643V170.325H249.218V183.475H246.643ZM243.793 180.925L242.343 182.975C239.968 182 238.218 180.15 237.268 177.825C236.268 180.3 234.443 182.275 231.893 183.275L230.468 181.25C234.018 179.925 235.943 176.775 235.943 173.35V171.15H238.518V173.35C238.518 176.55 240.393 179.625 243.793 180.925ZM246.918 184.325V185.1C246.918 187.475 248.393 189.8 251.318 190.75L250.043 192.65C247.868 191.875 246.393 190.375 245.618 188.55C244.893 190.35 243.568 191.975 241.493 192.85C239.393 192.025 238.043 190.45 237.318 188.6C236.518 190.375 235.093 191.85 232.993 192.65L231.718 190.75C234.618 189.725 236.118 187.325 236.118 185.1V184.325H238.618V185.1C238.618 187.05 239.493 189.1 241.468 190.35C243.493 188.975 244.393 186.85 244.393 185.1V184.325H246.918ZM256.866 172.55V185.15C259.916 185.125 263.166 184.875 266.591 184.175L266.891 186.3C263.066 187.05 259.566 187.3 256.166 187.3H254.291V172.55H256.866ZM274.416 179.15V181.275H270.991V192.925H268.416V170.35H270.991V179.15H274.416ZM283.864 183.15V188.05H289.564V183.125C288.689 183.35 287.714 183.45 286.714 183.45C285.714 183.45 284.739 183.35 283.864 183.15ZM286.714 173.675C283.289 173.675 280.914 175.175 280.914 177.55C280.914 179.95 283.289 181.45 286.714 181.45C290.114 181.45 292.489 179.95 292.489 177.55C292.489 175.175 290.114 173.675 286.714 173.675ZM292.139 188.05H296.964V190.15H276.514V188.05H281.289V182.175C279.489 181.175 278.414 179.55 278.414 177.55C278.414 173.95 281.889 171.65 286.714 171.65C291.514 171.65 295.014 173.95 295.014 177.55C295.014 179.55 293.939 181.15 292.139 182.175V188.05ZM302.687 185.125C302.087 180.925 306.437 179.325 306.437 176.6C306.437 175.2 305.562 174.175 303.987 174.175C302.812 174.175 301.787 174.775 300.962 175.7L299.337 174.225C300.562 172.825 302.237 171.825 304.312 171.825C307.237 171.825 309.237 173.475 309.237 176.4C309.237 180.05 304.787 181.4 305.212 185.125H302.687ZM303.987 191.325C302.887 191.325 302.062 190.5 302.062 189.325C302.062 188.125 302.887 187.275 303.987 187.275C305.062 187.275 305.912 188.125 305.912 189.325C305.912 190.5 305.062 191.325 303.987 191.325ZM313.317 180.4L312.467 178.8C314.092 177.9 314.917 176.85 314.917 175.225C314.817 175.25 314.742 175.25 314.642 175.25C313.567 175.25 312.642 174.525 312.642 173.325C312.642 172.05 313.492 171.225 314.642 171.225C316.217 171.225 317.067 172.475 317.067 174.6C317.067 177.175 315.817 179.125 313.317 180.4ZM319.567 180.4L318.717 178.8C320.342 177.9 321.167 176.85 321.167 175.225C321.067 175.25 320.992 175.25 320.892 175.25C319.817 175.25 318.892 174.525 318.892 173.325C318.892 172.05 319.742 171.225 320.892 171.225C322.467 171.225 323.317 172.475 323.317 174.6C323.317 177.175 322.067 179.125 319.567 180.4Z" fill="white"/>
<g filter="url(#filter0_d_353_3191)">
<rect x="28" y="408" width="305" height="57" rx="20" fill="#FDFDFD"/>
<rect x="29.25" y="409.25" width="302.5" height="54.5" rx="18.75" stroke="#FE4238" stroke-width="2.5"/>
</g>
<path d="M136.616 435.4H139.256V436.792H136.616V435.4ZM135.384 429.688H137.064V444.312H135.384V429.688ZM126.248 431.112H127.912V440.184H126.248V431.112ZM126.248 439.272H127.448C129.576 439.272 131.816 439.128 134.2 438.648L134.392 440.024C131.928 440.536 129.64 440.68 127.448 440.68H126.248V439.272ZM140.967 430.968H147.799V437.864H140.967V430.968ZM146.151 432.312H142.615V436.536H146.151V432.312ZM150.183 429.704H151.863V440.392H150.183V429.704ZM151.367 434.056H153.927V435.432H151.367V434.056ZM142.615 442.68H152.455V444.04H142.615V442.68ZM142.615 439.368H144.295V443.32H142.615V439.368ZM159.894 430.728C162.182 430.728 163.845 432.168 163.845 434.232C163.845 436.312 162.182 437.752 159.894 437.752C157.606 437.752 155.91 436.312 155.91 434.232C155.91 432.168 157.606 430.728 159.894 430.728ZM159.894 432.168C158.549 432.168 157.558 432.968 157.558 434.232C157.558 435.496 158.549 436.312 159.894 436.312C161.222 436.312 162.214 435.496 162.214 434.232C162.214 432.968 161.222 432.168 159.894 432.168ZM165.526 429.688H167.206V444.344H165.526V429.688ZM155.446 441.256L155.238 439.88C157.862 439.88 161.494 439.848 164.646 439.384L164.774 440.6C161.542 441.224 158.022 441.256 155.446 441.256ZM175.086 438.472H176.75V439.96H183.326V438.472H184.99V444.152H175.086V438.472ZM176.75 441.224V442.824H183.326V441.224H176.75ZM173.47 436.248H186.686V437.576H173.47V436.248ZM179.23 429.864H180.67V430.424C180.67 432.968 178.126 434.92 174.782 435.384L174.174 434.072C177.102 433.704 179.23 432.104 179.23 430.424V429.864ZM179.502 429.864H180.942V430.424C180.942 432.088 183.086 433.704 185.982 434.072L185.374 435.384C182.046 434.92 179.502 432.936 179.502 430.424V429.864ZM188.925 430.808H195.293V432.168H188.925V430.808ZM190.957 434.136H192.605V437.784H190.957V434.136ZM194.637 430.808H196.285V431.64C196.285 432.632 196.285 434.088 195.917 435.96L194.285 435.784C194.637 433.912 194.637 432.616 194.637 431.64V430.808ZM198.013 429.704H199.709V440.68H198.013V429.704ZM198.989 434.328H201.645V435.72H198.989V434.328ZM190.237 442.68H200.173V444.04H190.237V442.68ZM190.237 439.688H191.917V443.096H190.237V439.688ZM188.205 438.52L188.045 437.176C190.621 437.176 194.173 437.128 197.117 436.712L197.229 437.912C194.205 438.456 190.749 438.52 188.205 438.52ZM209.989 432.12H211.349V432.712C211.349 435.192 209.845 437.288 207.237 438.056L206.453 436.744C208.709 436.104 209.989 434.472 209.989 432.712V432.12ZM210.293 432.12H211.669V432.712C211.669 434.328 212.901 435.88 215.141 436.488L214.389 437.784C211.765 437.048 210.293 435.048 210.293 432.712V432.12ZM206.917 431.272H214.741V432.6H206.917V431.272ZM209.989 429.64H211.669V431.864H209.989V429.64ZM216.245 429.704H217.925V438.12H216.245V429.704ZM217.461 433.16H219.989V434.552H217.461V433.16ZM212.421 439.384H213.845V439.752C213.845 442.04 211.653 443.8 208.501 444.28L207.877 443C210.629 442.616 212.421 441.224 212.421 439.752V439.384ZM212.773 439.384H214.197V439.752C214.197 441.192 216.021 442.616 218.725 443.016L218.117 444.296C214.965 443.832 212.773 441.992 212.773 439.752V439.384ZM208.469 438.84H218.149V440.168H208.469V438.84ZM231.62 429.704H233.3V444.328H231.62V429.704ZM227.332 431.256H228.98C228.98 435.592 227.252 439.272 222.228 441.72L221.348 440.376C225.556 438.344 227.332 435.448 227.332 431.544V431.256ZM222.068 431.256H228.084V432.6H222.068V431.256Z" fill="#444546"/>
<path d="M65.404 504.972L64.936 503.796C67.3 503.652 68.38 502.968 68.584 502.212H65.464V500.976H68.704V500.004H70.288V500.976H73.54V502.212H70.42C70.624 502.968 71.704 503.652 74.068 503.796L73.6 504.972C71.572 504.828 70.192 504.264 69.508 503.388C68.812 504.264 67.432 504.828 65.404 504.972ZM69.484 509.868C70.984 509.868 71.716 509.652 71.716 509.16C71.716 508.656 70.984 508.452 69.484 508.452C67.984 508.452 67.252 508.656 67.252 509.16C67.252 509.652 67.984 509.868 69.484 509.868ZM69.484 507.288C71.896 507.288 73.324 507.948 73.324 509.16C73.324 510.372 71.896 511.032 69.484 511.032C67.072 511.032 65.656 510.372 65.656 509.16C65.656 507.948 67.072 507.288 69.484 507.288ZM70.288 505.524H74.5V506.76H64.516V505.524H68.704V504.468H70.288V505.524ZM81.0458 510.168C79.6418 510.168 78.6938 509.64 78.0698 508.932L78.8978 507.816C79.4258 508.332 80.0738 508.728 80.8778 508.728C81.7778 508.728 82.3898 508.284 82.3898 507.48C82.3898 506.616 81.8738 506.064 79.9418 506.064V504.804C81.5738 504.804 82.1018 504.24 82.1018 503.448C82.1018 502.752 81.6698 502.344 80.9138 502.344C80.2778 502.344 79.7618 502.632 79.2338 503.124L78.3338 502.044C79.1018 501.372 79.9538 500.952 80.9978 500.952C82.7138 500.952 83.8778 501.804 83.8778 503.316C83.8778 504.276 83.3378 504.972 82.4018 505.344V505.404C83.3978 505.68 84.1658 506.424 84.1658 507.588C84.1658 509.22 82.7378 510.168 81.0458 510.168ZM85.3402 510V508.98C87.7522 506.82 89.1802 505.152 89.1802 503.784C89.1802 502.884 88.7002 502.344 87.8482 502.344C87.2002 502.344 86.6722 502.764 86.2162 503.256L85.2562 502.296C86.0722 501.42 86.8642 500.952 88.0762 500.952C89.7562 500.952 90.8722 502.032 90.8722 503.688C90.8722 505.296 89.5402 507.024 87.9202 508.608C88.3642 508.56 88.9522 508.512 89.3722 508.512H91.2922V510H85.3402ZM92.8986 512.556L92.5266 511.596C93.4626 511.248 93.9786 510.624 93.9666 509.952C93.9306 509.952 93.8946 509.952 93.8586 509.952C93.2826 509.952 92.7546 509.58 92.7546 508.908C92.7546 508.272 93.2706 507.864 93.8946 507.864C94.7106 507.864 95.1666 508.512 95.1666 509.604C95.1666 511.008 94.3506 512.076 92.8986 512.556ZM99.081 510.168C97.677 510.168 96.729 509.64 96.105 508.932L96.933 507.816C97.461 508.332 98.109 508.728 98.913 508.728C99.813 508.728 100.425 508.284 100.425 507.48C100.425 506.616 99.909 506.064 97.977 506.064V504.804C99.609 504.804 100.137 504.24 100.137 503.448C100.137 502.752 99.705 502.344 98.949 502.344C98.313 502.344 97.797 502.632 97.269 503.124L96.369 502.044C97.137 501.372 97.989 500.952 99.033 500.952C100.749 500.952 101.913 501.804 101.913 503.316C101.913 504.276 101.373 504.972 100.437 505.344V505.404C101.433 505.68 102.201 506.424 102.201 507.588C102.201 509.22 100.773 510.168 99.081 510.168ZM106.399 510.168C104.587 510.168 103.387 508.584 103.387 505.524C103.387 502.452 104.587 500.952 106.399 500.952C108.211 500.952 109.399 502.464 109.399 505.524C109.399 508.584 108.211 510.168 106.399 510.168ZM106.399 508.788C107.167 508.788 107.731 508.02 107.731 505.524C107.731 503.04 107.167 502.32 106.399 502.32C105.631 502.32 105.055 503.04 105.055 505.524C105.055 508.02 105.631 508.788 106.399 508.788ZM110.442 510V508.98C112.854 506.82 114.282 505.152 114.282 503.784C114.282 502.884 113.802 502.344 112.95 502.344C112.302 502.344 111.774 502.764 111.318 503.256L110.358 502.296C111.174 501.42 111.966 500.952 113.178 500.952C114.858 500.952 115.974 502.032 115.974 503.688C115.974 505.296 114.642 507.024 113.022 508.608C113.466 508.56 114.054 508.512 114.474 508.512H116.394V510H110.442ZM121.624 504.612V502.032H119.524V504.612H121.624ZM125.164 502.836H123.172V503.784H125.164V502.836ZM123.172 505.044V505.86H117.964V500.772H123.172V501.576H125.164V499.98H126.748V506.46H125.164V505.044H123.172ZM123.004 509.82C124.456 509.82 125.212 509.52 125.212 508.884C125.212 508.248 124.456 507.948 123.004 507.948C121.564 507.948 120.808 508.248 120.808 508.884C120.808 509.52 121.564 509.82 123.004 509.82ZM123.004 506.736C125.356 506.736 126.796 507.528 126.796 508.884C126.796 510.24 125.356 511.032 123.004 511.032C120.664 511.032 119.224 510.24 119.224 508.884C119.224 507.528 120.664 506.736 123.004 506.736ZM136.311 500.076H137.559V510.948H136.311V500.076ZM131.787 500.88C133.407 500.88 134.583 502.368 134.583 504.696C134.583 507.048 133.407 508.524 131.787 508.524C130.179 508.524 129.003 507.048 129.003 504.696C129.003 502.368 130.179 500.88 131.787 500.88ZM131.787 501.996C130.851 501.996 130.191 503.016 130.191 504.696C130.191 506.4 130.851 507.42 131.787 507.42C132.735 507.42 133.395 506.4 133.395 504.696C133.395 503.016 132.735 501.996 131.787 501.996ZM151.306 500.076V505.584H150.07V500.076H151.306ZM143.782 502.884C143.782 503.748 144.478 504.312 145.414 504.312C146.362 504.312 147.07 503.748 147.07 502.884C147.07 502.02 146.362 501.456 145.414 501.456C144.478 501.456 143.782 502.02 143.782 502.884ZM148.27 502.884C148.27 504.312 147.058 505.32 145.414 505.32C143.782 505.32 142.582 504.312 142.582 502.884C142.582 501.456 143.782 500.436 145.414 500.436C147.058 500.436 148.27 501.456 148.27 502.884ZM145.438 509.82H151.63V510.792H144.226V507.948H150.082V507.048H144.202V506.076H151.306V508.86H145.438V509.82ZM159.621 504.708L159.741 505.704C158.337 506.004 157.065 506.076 154.737 506.076H153.861V500.976H158.685V501.984H155.097V505.056C157.149 505.044 158.313 504.984 159.621 504.708ZM156.261 507.132V509.712H162.309V510.72H155.013V507.132H156.261ZM161.877 503.184H163.413V504.204H161.877V507.924H160.641V500.076H161.877V503.184ZM167.096 507.468C167.828 507.468 168.344 506.88 168.344 505.98C168.344 505.08 167.828 504.48 167.096 504.48C166.364 504.48 165.848 505.08 165.848 505.98C165.848 506.88 166.364 507.468 167.096 507.468ZM167.096 503.46C168.464 503.46 169.448 504.48 169.448 505.98C169.448 507.468 168.464 508.5 167.096 508.5C165.728 508.5 164.744 507.468 164.744 505.98C164.744 504.48 165.728 503.46 167.096 503.46ZM167.708 500.4V501.852H169.736V502.848H164.432V501.852H166.484V500.4H167.708ZM172.508 500.088H173.684V510.924H172.508V505.596H171.356V510.42H170.204V500.316H171.356V504.576H172.508V500.088ZM179.378 503.16C179.378 504.048 179.942 504.636 180.722 504.636C181.514 504.636 182.09 504.048 182.09 503.16C182.09 502.26 181.514 501.684 180.722 501.684C179.942 501.684 179.378 502.26 179.378 503.16ZM183.206 503.16C183.206 504.624 182.174 505.644 180.722 505.644C179.282 505.644 178.262 504.624 178.262 503.16C178.262 501.696 179.282 500.676 180.722 500.676C182.174 500.676 183.206 501.696 183.206 503.16ZM186.146 509.796V508.584H181.37V509.796H186.146ZM186.146 507.624V506.46H187.358V510.792H180.146V506.46H181.37V507.624H186.146ZM186.182 500.1H187.358V505.992H186.182V503.484H185.042V505.92H183.878V500.292H185.042V502.476H186.182V500.1ZM194.125 501.18C192.445 501.18 191.545 501.504 191.545 502.128C191.545 502.74 192.445 503.064 194.125 503.064C195.805 503.064 196.705 502.74 196.705 502.128C196.705 501.504 195.805 501.18 194.125 501.18ZM194.125 503.988C191.689 503.988 190.261 503.328 190.261 502.128C190.261 500.916 191.689 500.256 194.125 500.256C196.549 500.256 197.989 500.916 197.989 502.128C197.989 503.328 196.549 503.988 194.125 503.988ZM191.629 508.98V509.88H198.109V510.828H190.405V508.104H196.585V507.324H190.381V506.388H197.797V508.98H191.629ZM189.217 504.624H199.033V505.608H189.217V504.624ZM206.756 500.988V502.764C206.756 504.696 207.764 506.652 209.396 507.456L208.64 508.44C207.476 507.84 206.612 506.664 206.144 505.248C205.676 506.748 204.764 508.008 203.528 508.644L202.772 507.648C204.464 506.82 205.52 504.768 205.52 502.764V500.988H206.756ZM213.044 504.384V505.404H211.352V510.924H210.116V500.088H211.352V504.384H213.044ZM218.875 509.976C220.459 509.976 221.359 509.64 221.359 508.98C221.359 508.332 220.459 507.984 218.875 507.984C217.291 507.984 216.403 508.332 216.403 508.98C216.403 509.64 217.291 509.976 218.875 509.976ZM218.875 507.036C221.215 507.036 222.607 507.744 222.607 508.98C222.607 510.228 221.215 510.924 218.875 510.924C216.547 510.924 215.143 510.228 215.143 508.98C215.143 507.744 216.547 507.036 218.875 507.036ZM217.555 504.252V505.356H220.219V504.252C219.823 504.312 219.379 504.348 218.899 504.348C218.419 504.348 217.951 504.312 217.555 504.252ZM218.899 501.228C217.279 501.228 216.307 501.612 216.307 502.308C216.307 503.004 217.279 503.4 218.899 503.4C220.507 503.4 221.479 503.004 221.479 502.308C221.479 501.612 220.507 501.228 218.899 501.228ZM221.455 505.356H223.795V506.34H213.991V505.356H216.319V503.916C215.503 503.568 215.035 503.016 215.035 502.308C215.035 501.036 216.523 500.268 218.899 500.268C221.263 500.268 222.763 501.036 222.763 502.308C222.763 503.016 222.283 503.568 221.455 503.928V505.356ZM228.198 507.576C229.074 507.576 229.71 506.976 229.71 506.064C229.71 505.152 229.074 504.552 228.198 504.552C227.322 504.552 226.686 505.152 226.686 506.064C226.686 506.976 227.322 507.576 228.198 507.576ZM228.198 503.532C229.746 503.532 230.886 504.588 230.886 506.064C230.886 507.552 229.746 508.596 228.198 508.596C226.638 508.596 225.51 507.552 225.51 506.064C225.51 504.588 226.638 503.532 228.198 503.532ZM228.798 500.256V501.756H231.33V502.764H224.982V501.756H227.562V500.256H228.798ZM235.122 504.444V505.476H233.454V510.936H232.206V500.088H233.454V504.444H235.122ZM243.569 502.164V502.104H237.101V501.096H244.817V502.164C244.817 503.508 244.817 505.008 244.397 507.252L243.149 507.12C243.569 504.996 243.569 503.46 243.569 502.164ZM240.977 508.488H245.873V509.508H236.081V508.488H239.729V504.672H240.977V508.488ZM258.743 500.1V506.256H257.507V500.1H258.743ZM252.899 501.708C251.939 501.708 251.231 502.32 251.231 503.244C251.231 504.18 251.939 504.78 252.899 504.78C253.859 504.78 254.567 504.18 254.567 503.244C254.567 502.32 253.859 501.708 252.899 501.708ZM252.899 505.8C251.243 505.8 250.019 504.756 250.019 503.244C250.019 501.732 251.243 500.688 252.899 500.688C254.555 500.688 255.767 501.732 255.767 503.244C255.767 504.756 254.555 505.8 252.899 505.8ZM257.591 506.724V507.204C257.591 508.32 258.299 509.412 259.703 509.868L259.091 510.78C258.047 510.408 257.339 509.712 256.967 508.836C256.619 509.688 255.971 510.468 254.987 510.876C253.967 510.48 253.331 509.736 252.995 508.86C252.599 509.712 251.903 510.408 250.895 510.78L250.295 509.868C251.675 509.376 252.395 508.26 252.395 507.204V506.724H253.595V507.204C253.595 508.116 254.015 509.088 254.963 509.688C255.923 509.04 256.379 508.02 256.379 507.204V506.724H257.591ZM270.13 503.328L269.686 504.288C267.922 504.048 266.458 503.232 265.75 502.104C265.054 503.232 263.59 504.048 261.826 504.288L261.37 503.328C263.542 503.052 265.114 501.876 265.114 500.616V500.196H266.386V500.616C266.386 501.864 267.982 503.052 270.13 503.328ZM268.162 509.808V508.644H263.278V509.808H268.162ZM268.162 507.696V506.592H269.398V510.792H262.054V506.592H263.278V507.696H268.162ZM260.842 504.936H270.658V505.92H260.842V504.936ZM273.753 501.144V507.132C275.289 507.12 276.909 506.988 278.613 506.64L278.745 507.672C276.885 508.056 275.133 508.188 273.453 508.188H272.529V501.144H273.753ZM279.609 500.088H280.845V510.924H279.609V500.088ZM284.6 502.116V507.24C286.352 507.228 287.672 507.156 289.184 506.892L289.316 507.912C287.672 508.212 286.208 508.272 284.252 508.272H283.364V501.108H288.404V502.116H284.6ZM293.012 504.252V505.272H291.32V510.936H290.084V500.076H291.32V504.252H293.012ZM295.147 510.156C294.631 510.156 294.223 509.76 294.223 509.196C294.223 508.62 294.631 508.212 295.147 508.212C295.663 508.212 296.071 508.62 296.071 509.196C296.071 509.76 295.663 510.156 295.147 510.156Z" fill="#444546"/>
</g>
<defs>
<clipPath id="paint0_diamond_353_3191_clip_path"><rect width="360" height="630"/></clipPath><filter id="filter0_d_353_3191" x="24" y="408" width="313" height="65" filterUnits="userSpaceOnUse" color-interpolation-filters="sRGB">
<feFlood flood-opacity="0" result="BackgroundImageFix"/>
<feColorMatrix in="SourceAlpha" type="matrix" values="0 0 0 0 0 0 0 0 0 0 0 0 0 0 0 0 0 0 127 0" result="hardAlpha"/>
<feOffset dy="4"/>
<feGaussianBlur stdDeviation="2"/>
<feComposite in2="hardAlpha" operator="out"/>
<feColorMatrix type="matrix" values="0 0 0 0 0 0 0 0 0 0 0 0 0 0 0 0 0 0 0.25 0"/>
<feBlend mode="normal" in2="BackgroundImageFix" result="effect1_dropShadow_353_3191"/>
<feBlend mode="normal" in="SourceGraphic" in2="effect1_dropShadow_353_3191" result="shape"/>
</filter>
<linearGradient id="paint0_diamond_353_3191" x1="0" y1="0" x2="500" y2="500" gradientUnits="userSpaceOnUse">
<stop stop-color="#FE7B38"/>
<stop offset="0.611562" stop-color="#FA7852"/>
<stop offset="1" stop-color="#FE4238"/>
</linearGradient>
<clipPath id="clip0_353_3191">
<rect width="360" height="630" fill="white"/>
</clipPath>
</defs>
</svg>
