<svg width="360" height="630" viewBox="0 0 360 630" fill="none" xmlns="http://www.w3.org/2000/svg">
<rect width="360" height="630" fill="white"/>
<path d="M30.9106 53.904V61.76C32.6706 61.712 34.5746 61.536 36.5106 61.168L36.7826 63.264C34.3186 63.776 31.8546 63.904 29.6786 63.904H28.3346V53.904H30.9106ZM41.7746 58V60.112H39.8386V67.472H37.2466V52.48H39.8386V58H41.7746ZM47.4694 53.456C49.8374 53.456 51.6774 55.056 51.6774 57.232C51.6774 59.424 49.8374 61.024 47.4694 61.024C45.1174 61.024 43.2774 59.424 43.2774 57.232C43.2774 55.056 45.1174 53.456 47.4694 53.456ZM47.4694 55.648C46.5414 55.648 45.8054 56.176 45.8054 57.232C45.8054 58.304 46.5414 58.832 47.4694 58.832C48.4134 58.832 49.1494 58.304 49.1494 57.232C49.1494 56.176 48.4134 55.648 47.4694 55.648ZM52.7814 52.48H55.3734V67.552H52.7814V52.48ZM43.0214 64.64L42.7334 62.576C45.3254 62.576 48.9254 62.544 52.0454 62.112L52.2214 63.952C49.0214 64.592 45.5814 64.64 43.0214 64.64ZM70.5164 59.136L69.2044 61.12C67.5884 60.64 66.5164 59.664 65.8444 58.432C65.1884 59.776 64.0684 60.848 62.3404 61.376L61.0124 59.36C63.4284 58.624 64.3404 56.928 64.4844 55.312H61.7164V53.296H69.8604V55.312H67.1564C67.3164 56.832 68.1964 58.4 70.5164 59.136ZM63.2684 64.16V62.144H73.6204V67.536H71.0284V64.16H63.2684ZM71.0284 52.496H73.6204V61.552H71.0284V52.496ZM85.8911 65.328V64.304H80.8511V65.328H85.8911ZM85.8911 62.352V61.184H88.4511V67.36H78.2911V61.184H80.8511V62.352H85.8911ZM79.9391 58.24C80.8351 58.24 81.4911 57.712 81.4911 56.72C81.4911 55.728 80.8351 55.216 79.9391 55.216C79.0431 55.216 78.3871 55.728 78.3871 56.72C78.3871 57.712 79.0431 58.24 79.9391 58.24ZM85.8591 52.512H88.4511V60.592H85.8591V57.728H83.8111C83.3631 59.296 81.8431 60.368 79.9391 60.368C77.6671 60.368 75.9231 58.832 75.9231 56.72C75.9231 54.624 77.6671 53.088 79.9391 53.088C81.8111 53.088 83.3151 54.128 83.7951 55.664H85.8591V52.512ZM97.2819 54.56C95.2659 54.56 94.4499 54.736 94.4499 55.232C94.4499 55.744 95.2659 55.904 97.2819 55.904C99.2979 55.904 100.114 55.744 100.114 55.232C100.114 54.736 99.2979 54.56 97.2819 54.56ZM97.2819 57.776C93.8099 57.776 91.7619 56.88 91.7619 55.232C91.7619 53.584 93.8099 52.688 97.2819 52.688C100.754 52.688 102.802 53.584 102.802 55.232C102.802 56.88 100.754 57.776 97.2819 57.776ZM94.5619 65.04V65.536H102.85V67.456H92.0019V63.28H99.9219V62.816H91.9859V60.928H102.482V65.04H94.5619ZM90.4819 58.304H104.082V60.304H90.4819V58.304ZM118.953 63.504V57.568H116.505V55.504H118.953V52.512H121.545V63.504H118.953ZM117.945 59.504L116.585 61.472C115.097 60.944 114.089 59.984 113.465 58.752C112.841 60.16 111.737 61.28 110.073 61.856L108.697 59.84C111.321 59.008 112.105 56.96 112.105 54.928V53.44H114.745V54.928C114.745 56.768 115.481 58.672 117.945 59.504ZM114.041 65.264H121.865V67.296H111.449V62.464H114.041V65.264ZM130.184 58.896L130.408 60.912C128.712 61.184 127.24 61.216 125.096 61.216H124.008V53.472H129.96V55.488H126.488V56.368H129.816V58.304H126.488V59.152C127.848 59.136 128.952 59.072 130.184 58.896ZM125.992 64.288V62.256H136.456V67.52H133.864V64.288H125.992ZM134.008 52.48H136.456V61.696H134.008V58.08H133.256V61.6H130.856V52.768H133.256V56.048H134.008V52.48ZM141.846 62.288C142.47 62.288 142.902 61.808 142.902 60.768C142.902 59.744 142.47 59.248 141.846 59.248C141.222 59.248 140.79 59.744 140.79 60.768C140.79 61.808 141.222 62.288 141.846 62.288ZM141.846 57.12C143.782 57.12 145.174 58.624 145.174 60.768C145.174 62.912 143.782 64.416 141.846 64.416C139.91 64.416 138.518 62.912 138.518 60.768C138.518 58.624 139.91 57.12 141.846 57.12ZM143.126 52.88V54.592H145.334V56.624H138.294V54.592H140.582V52.88H143.126ZM148.854 52.496H151.302V67.488H148.854V60.544H148.134V66.928H145.734V52.736H148.134V58.48H148.854V52.496ZM154.533 60L153.605 57.984C156.741 57.632 157.973 56.368 158.245 55.2H154.197V53.184H165.413V55.2H161.429C161.701 56.368 162.933 57.632 166.069 57.984L165.141 60C162.421 59.664 160.709 58.64 159.829 57.232C158.949 58.64 157.253 59.664 154.533 60ZM166.629 60.64V62.672H161.061V67.536H158.469V62.672H153.029V60.64H166.629ZM172.724 53.76V55.968C172.724 58.432 173.092 60.896 175.172 62.304L173.796 64.32C172.644 63.616 171.924 62.512 171.46 61.2C170.964 62.672 170.164 63.888 168.932 64.656L167.396 62.72C169.684 61.312 170.212 58.624 170.212 56.096V53.76H172.724ZM175.204 57.392V52.704H177.604V66.896H175.204V59.456H173.652V57.392H175.204ZM178.26 52.496H180.708V67.504H178.26V52.496ZM187.843 61.248V63.792H190.659V61.248C190.211 61.328 189.731 61.36 189.251 61.36C188.771 61.36 188.291 61.328 187.843 61.248ZM189.251 55.12C187.331 55.12 186.115 55.856 186.115 57.248C186.115 58.624 187.331 59.376 189.251 59.376C191.171 59.376 192.387 58.624 192.387 57.248C192.387 55.856 191.171 55.12 189.251 55.12ZM193.235 63.792H196.051V65.856H182.467V63.792H185.267V60.304C184.195 59.584 183.555 58.528 183.555 57.248C183.555 54.736 185.987 53.12 189.251 53.12C192.515 53.12 194.947 54.736 194.947 57.248C194.947 58.528 194.307 59.584 193.235 60.304V63.792Z" fill="#FE4238"/>
<path d="M140.606 308.904V316.76C142.366 316.712 144.27 316.536 146.206 316.168L146.478 318.264C144.014 318.776 141.55 318.904 139.374 318.904H138.03V308.904H140.606ZM151.47 313V315.112H149.534V322.472H146.942V307.48H149.534V313H151.47ZM157.165 308.456C159.533 308.456 161.373 310.056 161.373 312.232C161.373 314.424 159.533 316.024 157.165 316.024C154.813 316.024 152.973 314.424 152.973 312.232C152.973 310.056 154.813 308.456 157.165 308.456ZM157.165 310.648C156.237 310.648 155.501 311.176 155.501 312.232C155.501 313.304 156.237 313.832 157.165 313.832C158.109 313.832 158.845 313.304 158.845 312.232C158.845 311.176 158.109 310.648 157.165 310.648ZM162.477 307.48H165.069V322.552H162.477V307.48ZM152.717 319.64L152.429 317.576C155.021 317.576 158.621 317.544 161.741 317.112L161.917 318.952C158.717 319.592 155.277 319.64 152.717 319.64ZM180.212 314.136L178.9 316.12C177.284 315.64 176.212 314.664 175.54 313.432C174.884 314.776 173.764 315.848 172.036 316.376L170.708 314.36C173.124 313.624 174.036 311.928 174.18 310.312H171.412V308.296H179.556V310.312H176.852C177.012 311.832 177.892 313.4 180.212 314.136ZM172.964 319.16V317.144H183.316V322.536H180.724V319.16H172.964ZM180.724 307.496H183.316V316.552H180.724V307.496ZM195.586 320.328V319.304H190.546V320.328H195.586ZM195.586 317.352V316.184H198.146V322.36H187.986V316.184H190.546V317.352H195.586ZM189.634 313.24C190.53 313.24 191.186 312.712 191.186 311.72C191.186 310.728 190.53 310.216 189.634 310.216C188.738 310.216 188.082 310.728 188.082 311.72C188.082 312.712 188.738 313.24 189.634 313.24ZM195.554 307.512H198.146V315.592H195.554V312.728H193.506C193.058 314.296 191.538 315.368 189.634 315.368C187.362 315.368 185.618 313.832 185.618 311.72C185.618 309.624 187.362 308.088 189.634 308.088C191.506 308.088 193.01 309.128 193.49 310.664H195.554V307.512ZM206.977 309.928C205.153 309.928 204.129 310.28 204.129 311.048C204.129 311.832 205.153 312.168 206.977 312.168C208.801 312.168 209.825 311.832 209.825 311.048C209.825 310.28 208.801 309.928 206.977 309.928ZM206.977 314.2C203.681 314.2 201.457 313 201.457 311.048C201.457 309.112 203.681 307.912 206.977 307.912C210.273 307.912 212.497 309.112 212.497 311.048C212.497 313 210.273 314.2 206.977 314.2ZM204.353 317.896V320.264H212.241V322.296H201.761V317.896H204.353ZM200.177 315.032H213.777V317.064H200.177V315.032ZM217.152 316.68C216.768 314.216 219.424 313.192 219.424 311.88C219.424 311.16 218.928 310.808 218.272 310.808C217.616 310.808 217.152 311.144 216.656 311.64L215.088 310.2C215.968 309.192 217.184 308.52 218.624 308.52C220.624 308.52 222.16 309.464 222.16 311.688C222.16 313.912 219.424 314.568 219.632 316.68H217.152ZM218.384 321.224C217.392 321.224 216.688 320.44 216.688 319.448C216.688 318.456 217.392 317.688 218.384 317.688C219.36 317.688 220.08 318.456 220.08 319.448C220.08 320.44 219.36 321.224 218.384 321.224Z" fill="#FE4238"/>
<path d="M28.7151 80.392L28.2711 79.42C30.3351 79.144 31.8591 77.956 31.9311 76.696H28.6311V75.7H36.6111V76.696H33.3351C33.4071 77.956 34.9311 79.144 36.9951 79.42L36.5511 80.392C34.7631 80.128 33.2871 79.24 32.6271 78.04C31.9671 79.24 30.5031 80.128 28.7151 80.392ZM37.5351 81.184L37.5231 82.18H33.2151V85.936H31.9791V82.18H27.7311V81.184H37.5351ZM41.6862 82.42C42.6222 82.42 43.2582 81.412 43.2582 79.696C43.2582 78.016 42.6222 76.996 41.6862 76.996C40.7622 76.996 40.1262 78.016 40.1262 79.696C40.1262 81.412 40.7622 82.42 41.6862 82.42ZM46.5222 75.076H47.7702V85.948H46.5222V80.128H44.4222C44.2782 82.228 43.1742 83.524 41.6862 83.524C40.0902 83.524 38.9502 82.048 38.9502 79.696C38.9502 77.368 40.0902 75.88 41.6862 75.88C43.1382 75.88 44.2422 77.128 44.4102 79.12H46.5222V75.076ZM58.7373 75.1V82.984H57.5013V75.1H58.7373ZM56.4933 80.56L55.8693 81.532C54.6213 81.124 53.7093 80.284 53.2293 79.216C52.7493 80.368 51.8373 81.292 50.5413 81.724L49.8933 80.764C51.6093 80.188 52.5813 78.784 52.5813 77.32V76.924H50.2293V75.928H56.1573V76.924H53.8413V77.32C53.8413 78.7 54.8253 80.02 56.4933 80.56ZM52.9053 84.712H59.0493V85.72H51.6573V82.264H52.9053V84.712ZM65.8716 78.628V80.404H71.0076V78.628H65.8716ZM69.0516 83.584H73.3596V84.604H63.5436V83.584H67.8156V81.4H64.6476V75.808H65.8716V77.632H71.0076V75.808H72.2316V81.4H69.0516V83.584ZM75.1947 76.228H80.3307C80.3307 79.456 79.0347 82.192 75.3147 83.992L74.6547 83.008C77.4987 81.64 78.8427 79.732 79.0587 77.236H75.1947V76.228ZM82.2867 75.088H83.5227V85.924H82.2867V75.088ZM88.0578 82.456C88.8018 82.456 89.2578 81.484 89.2578 79.768C89.2578 78.052 88.8018 77.092 88.0578 77.092C87.3138 77.092 86.8578 78.052 86.8578 79.768C86.8578 81.484 87.3138 82.456 88.0578 82.456ZM91.5258 79.192V75.292H92.6778V85.408H91.5258V80.212H90.3738C90.2658 82.324 89.3778 83.62 88.0578 83.62C86.6538 83.62 85.7298 82.144 85.7298 79.768C85.7298 77.392 86.6538 75.928 88.0578 75.928C89.3538 75.928 90.2298 77.164 90.3618 79.192H91.5258ZM93.6978 75.088H94.8738V85.912H93.6978V75.088ZM108.735 80.236L108.111 81.196C106.863 80.8 105.951 79.96 105.471 78.892C104.991 80.044 104.079 80.944 102.783 81.4L102.135 80.428C103.851 79.852 104.823 78.448 104.823 76.984V76.78H102.471V75.784H108.399V76.78H106.083V76.984C106.083 78.364 107.067 79.696 108.735 80.236ZM103.671 83.164V82.168H110.979V85.924H109.743V83.164H103.671ZM109.743 75.076H110.979V81.628H109.743V75.076ZM120.843 84.796V83.596H116.247V84.796H120.843ZM120.843 82.636V81.412H122.067V85.792H115.023V81.412H116.247V82.636H120.843ZM116.067 79.624C117.003 79.624 117.699 79.012 117.699 78.1C117.699 77.176 117.003 76.588 116.067 76.588C115.107 76.588 114.423 77.176 114.423 78.1C114.423 79.012 115.107 79.624 116.067 79.624ZM120.831 75.088H122.067V80.896H120.831V78.592H118.827C118.611 79.816 117.507 80.644 116.067 80.644C114.435 80.644 113.235 79.6 113.235 78.1C113.235 76.612 114.435 75.568 116.067 75.568C117.495 75.568 118.587 76.372 118.827 77.584H120.831V75.088ZM131.798 75.076H133.046V85.948H131.798V75.076ZM127.274 75.88C128.894 75.88 130.07 77.368 130.07 79.696C130.07 82.048 128.894 83.524 127.274 83.524C125.666 83.524 124.49 82.048 124.49 79.696C124.49 77.368 125.666 75.88 127.274 75.88ZM127.274 76.996C126.338 76.996 125.678 78.016 125.678 79.696C125.678 81.4 126.338 82.42 127.274 82.42C128.222 82.42 128.882 81.4 128.882 79.696C128.882 78.016 128.222 76.996 127.274 76.996ZM139.196 78.052C139.196 78.964 139.88 79.564 140.828 79.564C141.776 79.564 142.472 78.964 142.472 78.052C142.472 77.152 141.776 76.564 140.828 76.564C139.88 76.564 139.196 77.152 139.196 78.052ZM145.604 78.544H143.6C143.36 79.768 142.268 80.584 140.828 80.584C139.208 80.584 138.008 79.552 138.008 78.052C138.008 76.576 139.208 75.544 140.828 75.544C142.256 75.544 143.348 76.336 143.588 77.524H145.604V75.1H146.84V80.824H145.604V78.544ZM141.776 84.844V83.584H140.228V84.844H141.776ZM141.776 81.448H142.916V85.792H139.076V81.448H140.228V82.672H141.776V81.448ZM146.048 81.364V82.228C146.048 83.38 146.648 84.484 147.956 84.964L147.344 85.9C146.384 85.528 145.76 84.832 145.424 84.004C145.064 84.82 144.452 85.516 143.54 85.9L142.916 84.964C144.212 84.424 144.824 83.296 144.824 82.228V81.364H146.048ZM150.571 77.116V82.24C152.323 82.228 153.643 82.156 155.155 81.892L155.287 82.912C153.643 83.212 152.179 83.272 150.223 83.272H149.335V76.108H154.375V77.116H150.571ZM158.983 79.252V80.272H157.291V85.936H156.055V75.076H157.291V79.252H158.983ZM164.226 80.188V76.972H161.622V80.188H164.226ZM167.682 77.908H165.426V79.228H167.682V77.908ZM165.426 80.224V81.172H160.41V75.988H165.426V76.9H167.682V75.088H168.918V82.996H167.682V80.224H165.426ZM163.11 84.712H169.17V85.72H161.862V82.276H163.11V84.712ZM180.36 80.236L179.736 81.196C178.488 80.8 177.576 79.96 177.096 78.892C176.616 80.044 175.704 80.944 174.408 81.4L173.76 80.428C175.476 79.852 176.448 78.448 176.448 76.984V76.78H174.096V75.784H180.024V76.78H177.708V76.984C177.708 78.364 178.692 79.696 180.36 80.236ZM175.296 83.164V82.168H182.604V85.924H181.368V83.164H175.296ZM181.368 75.076H182.604V81.628H181.368V75.076ZM191.16 79.984L190.548 80.956C189.348 80.524 188.484 79.672 188.016 78.628C187.536 79.792 186.624 80.74 185.34 81.184L184.704 80.212C186.384 79.636 187.368 78.196 187.368 76.744V76.672H185.076V75.664H190.872V76.672H188.616V76.732C188.616 78.076 189.54 79.42 191.16 79.984ZM192.456 84.796V83.632H187.872V84.796H192.456ZM192.456 82.66V81.484H193.692V85.792H186.648V81.484H187.872V82.66H192.456ZM192.444 75.088H193.692V81.004H192.444V78.64H190.536V77.62H192.444V75.088ZM206.142 75.088H207.378V80.908H206.142V75.088ZM200.298 81.412H201.522V82.612H206.154V81.412H207.378V85.792H200.298V81.412ZM201.522 83.572V84.796H206.154V83.572H201.522ZM201.534 75.58C203.19 75.58 204.402 76.612 204.402 78.1C204.402 79.588 203.19 80.62 201.534 80.62C199.878 80.62 198.654 79.588 198.654 78.1C198.654 76.612 199.878 75.58 201.534 75.58ZM201.534 76.6C200.55 76.6 199.866 77.2 199.866 78.1C199.866 79.012 200.55 79.6 201.534 79.6C202.506 79.6 203.202 79.012 203.202 78.1C203.202 77.2 202.506 76.6 201.534 76.6ZM215.117 80.104L215.249 81.1C213.941 81.328 212.837 81.364 210.713 81.364H209.921V78.004H213.377V76.708H209.897V75.712H214.601V78.952H211.133V80.356C212.945 80.356 213.941 80.308 215.117 80.104ZM211.133 83.308V82.3H218.465V85.948H217.229V83.308H211.133ZM217.229 75.088H218.465V81.76H217.229V79.912H215.285V78.916H217.229V77.644H215.285V76.648H217.229V75.088ZM225.863 82.468C226.595 82.468 227.111 81.88 227.111 80.98C227.111 80.08 226.595 79.48 225.863 79.48C225.131 79.48 224.615 80.08 224.615 80.98C224.615 81.88 225.131 82.468 225.863 82.468ZM225.863 78.46C227.231 78.46 228.215 79.48 228.215 80.98C228.215 82.468 227.231 83.5 225.863 83.5C224.495 83.5 223.511 82.468 223.511 80.98C223.511 79.48 224.495 78.46 225.863 78.46ZM226.475 75.4V76.852H228.503V77.848H223.199V76.852H225.251V75.4H226.475ZM231.275 75.088H232.451V85.924H231.275V80.596H230.123V85.42H228.971V75.316H230.123V79.576H231.275V75.088ZM235.246 80.392L234.802 79.42C236.866 79.144 238.39 77.956 238.462 76.696H235.162V75.7H243.142V76.696H239.866C239.938 77.956 241.462 79.144 243.526 79.42L243.082 80.392C241.294 80.128 239.818 79.24 239.158 78.04C238.498 79.24 237.034 80.128 235.246 80.392ZM244.066 81.184L244.054 82.18H239.746V85.936H238.51V82.18H234.262V81.184H244.066ZM248.625 76.084V77.98C248.625 79.732 249.285 81.568 250.737 82.48L250.041 83.44C249.057 82.84 248.409 81.784 248.037 80.572C247.653 81.904 246.945 83.044 245.901 83.68L245.145 82.744C246.681 81.832 247.425 79.888 247.425 78.04V76.084H248.625ZM251.169 78.88V75.292H252.333V85.42H251.169V79.888H249.573V78.88H251.169ZM253.377 75.088H254.553V85.924H253.377V75.088ZM259.869 81.232V83.584H262.605V81.22C262.185 81.328 261.717 81.376 261.237 81.376C260.757 81.376 260.289 81.328 259.869 81.232ZM261.237 76.684C259.593 76.684 258.453 77.404 258.453 78.544C258.453 79.696 259.593 80.416 261.237 80.416C262.869 80.416 264.009 79.696 264.009 78.544C264.009 77.404 262.869 76.684 261.237 76.684ZM263.841 83.584H266.157V84.592H256.341V83.584H258.633V80.764C257.769 80.284 257.253 79.504 257.253 78.544C257.253 76.816 258.921 75.712 261.237 75.712C263.541 75.712 265.221 76.816 265.221 78.544C265.221 79.504 264.705 80.272 263.841 80.764V83.584ZM268.364 82.18L268.172 77.38L268.136 75.952H269.528L269.48 77.38L269.288 82.18H268.364ZM268.82 85.156C268.304 85.156 267.908 84.76 267.908 84.196C267.908 83.62 268.304 83.212 268.82 83.212C269.348 83.212 269.756 83.62 269.756 84.196C269.756 84.76 269.348 85.156 268.82 85.156Z" fill="#444546"/>
<rect x="27" y="338" width="66" height="32" rx="16" fill="url(#paint0_linear_353_3239)"/>
<path d="M43.872 347.984V350.352C43.872 352.928 45.216 355.536 47.392 356.608L46.384 357.92C44.832 357.12 43.68 355.552 43.056 353.664C42.432 355.664 41.216 357.344 39.568 358.192L38.56 356.864C40.816 355.76 42.224 353.024 42.224 350.352V347.984H43.872ZM52.256 352.512V353.872H50V361.232H48.352V346.784H50V352.512H52.256ZM63.3588 351.936V348.864H56.7508V351.936H63.3588ZM64.9908 347.552V353.264H55.1188V347.552H64.9908ZM66.6228 355.04V356.368H60.8468V361.232H59.1988V356.368H53.5188V355.04H66.6228ZM77.1655 353.648L76.3335 354.928C74.6695 354.4 73.4535 353.28 72.8135 351.856C72.1735 353.392 70.9575 354.592 69.2295 355.2L68.3655 353.904C70.6535 353.136 71.9495 351.264 71.9495 349.312V349.04H68.8135V347.712H76.7175V349.04H73.6295V349.312C73.6295 351.152 74.9415 352.928 77.1655 353.648ZM70.4135 357.552V356.224H80.1575V361.232H78.5095V357.552H70.4135ZM78.5095 346.768H80.1575V355.504H78.5095V346.768Z" fill="#FDFDFD"/>
<rect x="107.5" y="382.5" width="65" height="31" rx="15.5" stroke="#DDDDDD"/>
<path d="M134.36 392.192V393.504H125.832V392.192H129.272V390.704H130.92V392.192H134.36ZM128.168 396.768C128.168 397.616 128.936 398.128 130.088 398.128C131.24 398.128 132.024 397.616 132.024 396.768C132.024 395.904 131.24 395.392 130.088 395.392C128.936 395.392 128.168 395.904 128.168 396.768ZM133.592 396.768C133.592 398.336 132.168 399.392 130.088 399.392C128.008 399.392 126.584 398.336 126.584 396.768C126.584 395.184 128.008 394.128 130.088 394.128C132.168 394.128 133.592 395.184 133.592 396.768ZM127.592 401.856V400.528H137.096V405.232H135.448V401.856H127.592ZM139.144 394.656V396.016H137.096V399.824H135.448V390.784H137.096V394.656H139.144ZM149.671 395.84V399.2H148.119V391.056H149.671V394.496H151.191V390.8H152.759V399.664H151.191V395.84H149.671ZM147.783 397.408L146.903 398.64C145.623 398.144 144.727 397.184 144.183 396.032C143.655 397.36 142.711 398.48 141.319 399.088L140.455 397.824C142.391 396.944 143.367 395.136 143.367 393.488V391.664H144.967V393.488C144.967 395.088 145.911 396.672 147.783 397.408ZM147.943 403.968C149.975 403.968 151.191 403.472 151.191 402.592C151.191 401.696 149.975 401.2 147.943 401.2C145.911 401.2 144.695 401.696 144.695 402.592C144.695 403.472 145.911 403.968 147.943 403.968ZM147.943 399.936C150.951 399.936 152.839 400.928 152.839 402.592C152.839 404.24 150.951 405.232 147.943 405.232C144.935 405.232 143.047 404.24 143.047 402.592C143.047 400.928 144.935 399.936 147.943 399.936Z" fill="#444546"/>
<rect x="27.5" y="382.5" width="65" height="31" rx="15.5" stroke="#DDDDDD"/>
<path d="M46.128 397.856L45.536 396.56C48.288 396.192 50.32 394.608 50.416 392.928H46.016V391.6H56.656V392.928H52.288C52.384 394.608 54.416 396.192 57.168 396.56L56.576 397.856C54.192 397.504 52.224 396.32 51.344 394.72C50.464 396.32 48.512 397.504 46.128 397.856ZM57.888 398.912L57.872 400.24H52.128V405.248H50.48V400.24H44.816V398.912H57.888ZM69.3588 396.336V394.496H62.7508V396.336H69.3588ZM71.0068 391.344V397.664H61.1028V391.344H62.7508V393.168H69.3588V391.344H71.0068ZM72.6228 399.232V400.56H66.8468V405.248H65.1988V400.56H59.5188V399.232H72.6228Z" fill="#444546"/>
<rect x="107.5" y="338.5" width="65" height="31" rx="15.5" stroke="#DDDDDD"/>
<path d="M125.296 348.72H129.696V350.08H125.296V348.72ZM125.296 352.032H129.696V353.392H125.296V352.032ZM122.736 347.536C124.896 347.536 126.544 349.008 126.544 351.056C126.544 353.104 124.896 354.576 122.736 354.576C120.56 354.576 118.928 353.104 118.928 351.056C118.928 349.008 120.56 347.536 122.736 347.536ZM122.736 348.96C121.472 348.96 120.528 349.776 120.528 351.056C120.528 352.32 121.472 353.152 122.736 353.152C124 353.152 124.944 352.32 124.944 351.056C124.944 349.776 124 348.96 122.736 348.96ZM129.168 346.704H130.848V355.312H129.168V346.704ZM125.968 355.648C129.008 355.648 130.896 356.688 130.896 358.48C130.896 360.272 129.008 361.312 125.968 361.312C122.928 361.312 121.04 360.272 121.04 358.48C121.04 356.688 122.928 355.648 125.968 355.648ZM125.968 356.944C123.888 356.944 122.688 357.488 122.688 358.48C122.688 359.456 123.888 360 125.968 360C128.048 360 129.248 359.456 129.248 358.48C129.248 357.488 128.048 356.944 125.968 356.944ZM140.815 350.08H144.623V351.44H140.815V350.08ZM137.455 347.344C139.647 347.344 141.263 348.768 141.263 350.784C141.263 352.8 139.647 354.208 137.455 354.208C135.263 354.208 133.647 352.8 133.647 350.784C133.647 348.768 135.263 347.344 137.455 347.344ZM137.455 348.752C136.175 348.752 135.247 349.552 135.247 350.784C135.247 352 136.175 352.816 137.455 352.816C138.735 352.816 139.647 352 139.647 350.784C139.647 349.552 138.735 348.752 137.455 348.752ZM143.887 346.704H145.567V354.56H143.887V346.704ZM136.047 355.248H137.711V356.88H143.903V355.248H145.567V361.152H136.047V355.248ZM137.711 358.192V359.808H143.903V358.192H137.711ZM151.902 348.208H153.294V349.264C153.294 351.984 151.774 354.336 149.166 355.216L148.302 353.92C150.606 353.136 151.902 351.232 151.902 349.264V348.208ZM152.238 348.208H153.614V349.264C153.614 351.136 154.926 352.912 157.182 353.648L156.334 354.96C153.758 354.112 152.238 351.856 152.238 349.264V348.208ZM158.542 346.704H160.222V355.536H158.542V346.704ZM150.366 356.256H160.222V361.328H158.542V357.6H150.366V356.256ZM148.75 347.648H156.734V348.992H148.75V347.648Z" fill="#444546"/>
<rect x="187.5" y="382.5" width="65" height="31" rx="15.5" stroke="#DDDDDD"/>
<path d="M209.856 396.528L208.24 396.352C208.608 394.928 208.624 393.888 208.624 392.8H200.336V391.472H210.256V392.688C210.256 393.84 210.256 395.04 209.856 396.528ZM205.296 403.968C207.424 403.968 208.704 403.44 208.704 402.528C208.704 401.632 207.424 401.104 205.296 401.104C203.152 401.104 201.84 401.632 201.84 402.528C201.84 403.44 203.152 403.968 205.296 403.968ZM205.296 399.84C208.368 399.84 210.352 400.864 210.352 402.528C210.352 404.208 208.368 405.232 205.296 405.232C202.176 405.232 200.208 404.208 200.208 402.528C200.208 400.864 202.176 399.84 205.296 399.84ZM205.616 397.392H211.856V398.72H198.832V397.392H203.952V394.736H205.616V397.392ZM223.359 395.936V392.864H216.751V395.936H223.359ZM224.991 391.552V397.264H215.119V391.552H224.991ZM226.623 399.04V400.368H220.847V405.232H219.199V400.368H213.519V399.04H226.623ZM235.742 399.264H238.574V390.768H240.222V401.76H238.574V400.416H235.742V399.264ZM232.862 392.544C231.661 392.544 230.846 393.056 230.846 393.872C230.846 394.688 231.661 395.2 232.862 395.2C234.046 395.2 234.862 394.688 234.862 393.872C234.862 393.056 234.046 392.544 232.862 392.544ZM232.862 396.416C230.734 396.416 229.278 395.408 229.278 393.872C229.278 392.336 230.734 391.328 232.862 391.328C234.974 391.328 236.43 392.336 236.43 393.872C236.43 395.408 234.974 396.416 232.862 396.416ZM232.206 401.296V398.608C230.83 398.672 229.534 398.688 228.382 398.688L228.174 397.344C230.83 397.328 234.382 397.296 237.438 396.912L237.566 398.096C236.35 398.304 235.086 398.432 233.854 398.512V401.296H232.206ZM231.774 403.616H240.558V404.96H230.126V400.688H231.774V403.616Z" fill="#444546"/>
<rect x="187.5" y="338.5" width="65" height="31" rx="15.5" stroke="#DDDDDD"/>
<path d="M197.536 360V348.224H199.408V360H197.536ZM204.874 360V349.792H201.418V348.224H210.202V349.792H206.746V360H204.874ZM220.697 350.672H223.817V352.016H220.697V350.672ZM220.601 354.336H223.769V355.68H220.601V354.336ZM225.929 346.704H227.545V361.328H225.929V346.704ZM222.969 347.056H224.537V360.624H222.969V347.056ZM219.689 348.496H221.305C221.305 352.464 219.897 355.856 215.897 358.224L214.937 357.04C218.312 355.008 219.689 352.304 219.689 348.816V348.496ZM215.673 348.496H220.297V349.856H215.673V348.496ZM236.583 348.336H240.551V349.648H236.583V348.336ZM236.583 351.328H240.551V352.64H236.583V351.328ZM233.767 347.152C235.959 347.152 237.575 348.544 237.575 350.512C237.575 352.464 235.959 353.856 233.767 353.856C231.575 353.856 229.959 352.464 229.959 350.512C229.959 348.544 231.575 347.152 233.767 347.152ZM233.767 348.528C232.487 348.528 231.559 349.312 231.559 350.512C231.559 351.712 232.487 352.496 233.767 352.496C235.047 352.496 235.975 351.712 235.975 350.512C235.975 349.312 235.047 348.528 233.767 348.528ZM240.199 346.704H241.863V354.112H240.199V346.704ZM232.343 354.8H241.863V358.528H234.023V360.544H232.375V357.296H240.215V356.112H232.343V354.8ZM232.375 359.824H242.359V361.152H232.375V359.824Z" fill="#444546"/>
<rect x="267.5" y="382.5" width="65" height="31" rx="15.5" stroke="#DDDDDD"/>
<path d="M274.168 395.152C274.168 396.4 275.144 397.2 276.472 397.2C277.816 397.2 278.792 396.4 278.792 395.152C278.792 393.888 277.816 393.088 276.472 393.088C275.144 393.088 274.168 393.888 274.168 395.152ZM277.304 398.56V400.752C278.6 400.672 279.928 400.576 281.176 400.384L281.288 401.584C278.104 402.192 274.648 402.224 272.088 402.224L271.88 400.864C272.984 400.864 274.296 400.864 275.64 400.816V398.56C273.816 398.256 272.552 396.928 272.552 395.152C272.552 393.104 274.216 391.68 276.472 391.68C278.728 391.68 280.408 393.104 280.408 395.152C280.408 396.928 279.128 398.256 277.304 398.56ZM282.04 390.768H283.704V405.248H282.04V390.768ZM299.623 397.856H293.895V400.224H298.055V405.232H296.407V401.552H287.863V400.224H292.231V397.856H286.535V396.528H296.023C296.343 394.976 296.375 393.808 296.375 392.768H288.167V391.44H297.991V392.544C297.991 393.632 297.991 394.88 297.671 396.528H299.623V397.856ZM302.07 392.304H308.918C308.918 396.608 307.19 400.256 302.23 402.656L301.35 401.344C305.141 399.52 306.934 396.976 307.222 393.648H302.07V392.304ZM311.526 390.784H313.174V405.232H311.526V390.784ZM326.308 403.728V402.128H320.18V403.728H326.308ZM326.308 400.848V399.216H327.94V405.056H318.548V399.216H320.18V400.848H326.308ZM319.94 396.832C321.188 396.832 322.116 396.016 322.116 394.8C322.116 393.568 321.188 392.784 319.94 392.784C318.66 392.784 317.748 393.568 317.748 394.8C317.748 396.016 318.66 396.832 319.94 396.832ZM326.292 390.784H327.94V398.528H326.292V395.456H323.62C323.332 397.088 321.86 398.192 319.94 398.192C317.764 398.192 316.164 396.8 316.164 394.8C316.164 392.816 317.764 391.424 319.94 391.424C321.844 391.424 323.3 392.496 323.62 394.112H326.292V390.784Z" fill="#444546"/>
<rect x="267.5" y="338.5" width="65" height="31" rx="15.5" stroke="#DDDDDD"/>
<path d="M281.6 347.6H282.912V349.44C282.912 351.76 281.776 354.128 279.52 355.104L278.64 353.808C280.608 352.944 281.6 351.088 281.6 349.44V347.6ZM281.888 347.6H283.216V349.44C283.216 351.04 284.176 352.656 286.064 353.392L285.168 354.672C282.992 353.808 281.888 351.696 281.888 349.44V347.6ZM289.52 346.72H291.104V355.696H289.52V346.72ZM287.44 350.464H290V351.824H287.44V350.464ZM286.4 346.992H287.968V355.232H286.4V346.992ZM286.24 355.968C289.264 355.968 291.184 356.96 291.184 358.64C291.184 360.32 289.264 361.312 286.24 361.312C283.184 361.312 281.296 360.32 281.296 358.64C281.296 356.96 283.184 355.968 286.24 355.968ZM286.24 357.248C284.176 357.248 282.944 357.744 282.944 358.64C282.944 359.536 284.176 360.032 286.24 360.032C288.288 360.032 289.504 359.536 289.504 358.64C289.504 357.744 288.288 357.248 286.24 357.248ZM296.895 347.6H298.287V349.296C298.287 352.176 296.815 354.56 294.207 355.504L293.311 354.192C295.647 353.392 296.895 351.44 296.895 349.296V347.6ZM297.215 347.6H298.575V349.328C298.575 351.248 299.839 353.104 302.063 353.872L301.215 355.184C298.671 354.304 297.215 351.984 297.215 349.328V347.6ZM303.183 346.704H304.863V357.456H303.183V346.704ZM304.367 351.072H306.927V352.464H304.367V351.072ZM295.631 359.68H305.455V361.04H295.631V359.68ZM295.631 356.432H297.327V360.368H295.631V356.432ZM311.902 348.208H313.294V349.264C313.294 351.984 311.774 354.336 309.166 355.216L308.302 353.92C310.606 353.136 311.902 351.232 311.902 349.264V348.208ZM312.238 348.208H313.614V349.264C313.614 351.136 314.926 352.912 317.182 353.648L316.334 354.96C313.758 354.112 312.238 351.856 312.238 349.264V348.208ZM318.542 346.704H320.222V355.536H318.542V346.704ZM310.366 356.256H320.222V361.328H318.542V357.6H310.366V356.256ZM308.75 347.648H316.734V348.992H308.75V347.648Z" fill="#444546"/>
<rect x="27.5" y="426.5" width="65" height="31" rx="15.5" stroke="#DDDDDD"/>
<path d="M40.944 437.504V444.32H44.448V437.504H40.944ZM39.312 445.632V436.192H46.08V445.632H39.312ZM52.256 440.432V441.792H50V449.248H48.352V434.784H50V440.432H52.256ZM61.3108 440.368V435.12H62.8468V448.528H61.3108V441.712H58.8948C58.0948 443.456 56.7348 445.024 54.4788 446.304L53.5508 445.152C55.5828 444 56.8307 442.656 57.5188 441.072L53.8068 441.472L53.5828 440.048L57.9668 439.792C58.1268 439.136 58.2388 438.48 58.2868 437.776H54.2868V436.448H59.8708C59.8708 437.824 59.7428 439.136 59.3908 440.368H61.3108ZM64.3028 434.768H65.8868V449.232H64.3028V434.768ZM80.1575 434.8V443.648H78.5095V434.8H80.1575ZM77.0535 441.088L77.2135 442.4C75.1495 442.736 73.3735 442.784 70.2695 442.784H69.0695V435.808H75.9815V437.136H70.7015V438.624H75.5655V439.92H70.7015V441.472C73.4855 441.472 75.1335 441.408 77.0535 441.088ZM75.3415 447.952C77.3895 447.952 78.5895 447.456 78.5895 446.544C78.5895 445.632 77.3895 445.136 75.3415 445.136C73.2775 445.136 72.0935 445.632 72.0935 446.544C72.0935 447.456 73.2775 447.952 75.3415 447.952ZM75.3415 443.856C78.3815 443.856 80.2375 444.848 80.2375 446.544C80.2375 448.24 78.3815 449.232 75.3415 449.232C72.3015 449.232 70.4455 448.24 70.4455 446.544C70.4455 444.848 72.3015 443.856 75.3415 443.856Z" fill="#444546"/>
<rect x="107.5" y="426.5" width="65" height="31" rx="15.5" stroke="#DDDDDD"/>
<path d="M134.92 436.464V437.792H126.184V436.464H129.736V434.816H131.384V436.464H134.92ZM128.6 441.184C128.6 442.08 129.4 442.624 130.568 442.624C131.72 442.624 132.52 442.08 132.52 441.184C132.52 440.304 131.72 439.76 130.568 439.76C129.4 439.76 128.6 440.304 128.6 441.184ZM131.384 443.824V445.184C132.68 445.104 133.992 445.024 135.224 444.848L135.336 446.048C132.152 446.592 128.728 446.64 126.104 446.64L125.896 445.28C127.048 445.28 128.376 445.28 129.736 445.232V443.824C128.104 443.568 127.032 442.576 127.032 441.184C127.032 439.568 128.472 438.496 130.568 438.496C132.648 438.496 134.088 439.568 134.088 441.184C134.088 442.592 133.016 443.568 131.384 443.824ZM136.04 434.768H137.704V449.232H136.04V434.768ZM148.391 438.688V435.136H149.927V448.528H148.391V443.664H146.023V442.32H148.391V440.032H146.279C145.607 442.464 144.087 444.56 141.383 446.176L140.439 445.008C143.415 443.2 144.855 440.848 145.095 437.888H141.143V436.56H146.727C146.727 437.296 146.679 438.016 146.567 438.688H148.391ZM151.303 434.784H152.887V449.232H151.303V434.784Z" fill="#444546"/>
<rect x="187.5" y="426.5" width="65" height="31" rx="15.5" stroke="#DDDDDD"/>
<path d="M215.864 437.648V437.472H207.112V436.128H217.512V437.648C217.512 439.456 217.512 441.392 217 444.192L215.352 444C215.864 441.36 215.864 439.408 215.864 437.648ZM214.024 445.984H218.872V447.344H205.816V445.984H208.824V441.312H210.456V445.984H212.392V441.312H214.024V445.984ZM227.063 436.384C224.903 436.384 223.607 436.928 223.607 437.904C223.607 438.864 224.903 439.408 227.063 439.408C229.207 439.408 230.503 438.864 230.503 437.904C230.503 436.928 229.207 436.384 227.063 436.384ZM227.063 440.704C223.911 440.704 221.911 439.648 221.911 437.904C221.911 436.16 223.911 435.104 227.063 435.104C230.199 435.104 232.215 436.16 232.215 437.904C232.215 439.648 230.199 440.704 227.063 440.704ZM228.647 444.56V442.976H225.447V444.56H228.647ZM233.591 442.976H230.295V444.56H231.991V449.232H230.343V445.872H221.975V444.56H223.799V442.976H220.503V441.648H233.591V442.976Z" fill="#444546"/>
<rect x="267.5" y="426.5" width="65" height="31" rx="15.5" stroke="#DDDDDD"/>
<path d="M280.576 439.344C280.576 440.688 281.52 441.584 282.784 441.584C284.016 441.584 284.96 440.688 284.96 439.344C284.96 438.032 284.016 437.136 282.784 437.136C281.52 437.136 280.576 438.032 280.576 439.344ZM289.136 438.272H286.368C286.48 438.608 286.528 438.96 286.528 439.344C286.528 439.728 286.48 440.08 286.368 440.416H289.136V438.272ZM289.136 441.76H285.664C284.992 442.544 283.968 443.024 282.784 443.008C280.64 443.008 279.008 441.472 279.008 439.344C279.008 437.216 280.64 435.68 282.784 435.68C283.968 435.68 284.992 436.16 285.664 436.928H289.136V434.8H290.784V445.424H289.136V441.76ZM283.072 447.616H291.152V448.96H281.424V444.352H283.072V447.616ZM306.607 441.84V443.2H300.847V449.232H299.183V443.2H293.535V441.84H302.927C303.343 439.824 303.343 438.32 303.343 436.992H295.103V435.664H304.959V436.928C304.959 438.288 304.959 439.792 304.591 441.84H306.607ZM315.742 443.264H318.574V434.768H320.222V445.76H318.574V444.416H315.742V443.264ZM312.862 436.544C311.661 436.544 310.846 437.056 310.846 437.872C310.846 438.688 311.661 439.2 312.862 439.2C314.046 439.2 314.862 438.688 314.862 437.872C314.862 437.056 314.046 436.544 312.862 436.544ZM312.862 440.416C310.734 440.416 309.278 439.408 309.278 437.872C309.278 436.336 310.734 435.328 312.862 435.328C314.974 435.328 316.43 436.336 316.43 437.872C316.43 439.408 314.974 440.416 312.862 440.416ZM312.206 445.296V442.608C310.83 442.672 309.534 442.688 308.382 442.688L308.174 441.344C310.83 441.328 314.382 441.296 317.438 440.912L317.566 442.096C316.35 442.304 315.086 442.432 313.854 442.512V445.296H312.206ZM311.774 447.616H320.558V448.96H310.126V444.688H311.774V447.616Z" fill="#444546"/>
<rect x="29.5" y="470.5" width="160" height="31" rx="15.5" stroke="#DDDDDD"/>
<path d="M87.728 485.648L86.896 486.928C85.232 486.4 84.016 485.28 83.376 483.856C82.736 485.392 81.52 486.592 79.792 487.2L78.928 485.904C81.216 485.136 82.512 483.264 82.512 481.312V481.04H79.376V479.712H87.28V481.04H84.192V481.312C84.192 483.152 85.504 484.928 87.728 485.648ZM80.976 489.552V488.224H90.72V493.232H89.072V489.552H80.976ZM89.072 478.768H90.72V487.504H89.072V478.768ZM102.127 485.312L101.311 486.608C99.7108 486.032 98.5588 484.896 97.9348 483.504C97.2948 485.056 96.0788 486.32 94.3668 486.912L93.5188 485.616C95.7588 484.848 97.0708 482.928 97.0708 480.992V480.896H94.0148V479.552H101.743V480.896H98.7348V480.976C98.7348 482.768 99.9668 484.56 102.127 485.312ZM103.855 491.728V490.176H97.7428V491.728H103.855ZM103.855 488.88V487.312H105.503V493.056H96.1108V487.312H97.7428V488.88H103.855ZM103.839 478.784H105.503V486.672H103.839V483.52H101.295V482.16H103.839V478.784ZM122.103 478.784H123.751V486.544H122.103V478.784ZM114.311 487.216H115.943V488.816H122.119V487.216H123.751V493.056H114.311V487.216ZM115.943 490.096V491.728H122.119V490.096H115.943ZM115.959 479.44C118.167 479.44 119.783 480.816 119.783 482.8C119.783 484.784 118.167 486.16 115.959 486.16C113.751 486.16 112.119 484.784 112.119 482.8C112.119 480.816 113.751 479.44 115.959 479.44ZM115.959 480.8C114.647 480.8 113.735 481.6 113.735 482.8C113.735 484.016 114.647 484.8 115.959 484.8C117.255 484.8 118.183 484.016 118.183 482.8C118.183 481.6 117.255 480.8 115.959 480.8ZM134.07 485.472L134.246 486.8C132.502 487.104 131.03 487.152 128.198 487.152H127.142V482.672H131.75V480.944H127.11V479.616H133.382V483.936H128.758V485.808C131.174 485.808 132.502 485.744 134.07 485.472ZM128.758 489.744V488.4H138.534V493.264H136.886V489.744H128.758ZM136.886 478.784H138.534V487.68H136.886V485.216H134.294V483.888H136.886V482.192H134.294V480.864H136.886V478.784Z" fill="#444546"/>
<rect x="28" y="536" width="305" height="45" rx="22.5" fill="url(#paint1_linear_353_3239)"/>
<path d="M135.04 554.488V561.32C137.376 561.304 139.136 561.208 141.152 560.856L141.328 562.216C139.136 562.616 137.184 562.696 134.576 562.696H133.392V553.144H140.112V554.488H135.04ZM146.256 557.336V558.696H144V566.248H142.352V551.768H144V557.336H146.256ZM154.063 552.088C157.215 552.088 159.215 553.128 159.215 554.856C159.215 556.568 157.215 557.624 154.063 557.624C150.911 557.624 148.911 556.568 148.911 554.856C148.911 553.128 150.911 552.088 154.063 552.088ZM154.063 553.368C151.919 553.368 150.607 553.896 150.607 554.856C150.607 555.8 151.919 556.328 154.063 556.328C156.207 556.328 157.503 555.8 157.503 554.856C157.503 553.896 156.207 553.368 154.063 553.368ZM149.087 561.224H159.007V566.056H149.087V561.224ZM157.391 562.536H150.719V564.744H157.391V562.536ZM147.519 558.68H160.591V559.992H147.519V558.68ZM177.751 551.784V559.24H176.087V551.784H177.751ZM174.743 557.752L174.007 559.016C172.295 558.536 171.063 557.464 170.407 556.136C169.767 557.608 168.503 558.776 166.743 559.336L165.959 558.04C168.199 557.368 169.511 555.656 169.543 553.864H166.407V552.536H174.311V553.864H171.223C171.271 555.544 172.551 557.128 174.743 557.752ZM169.927 564.824H178.183V566.104H168.311V562.36H176.119V561.144H168.279V559.896H177.751V563.544H169.927V564.824ZM190.342 556.328V553.736H183.83V556.328H190.342ZM191.958 552.424V557.64H182.214V552.424H191.958ZM183.798 561.784V564.616H192.198V565.96H182.15V561.784H183.798ZM180.55 559.064H193.654V560.392H188.054V563.096H186.406V560.392H180.55V559.064ZM201.983 556.504V558.872H208.831V556.504H201.983ZM206.223 563.112H211.967V564.472H198.879V563.112H204.575V560.2H200.351V552.744H201.983V555.176H208.831V552.744H210.463V560.2H206.223V563.112ZM214.413 553.304H221.261C221.261 557.608 219.533 561.256 214.573 563.656L213.693 562.344C217.485 560.52 219.277 557.976 219.565 554.648H214.413V553.304ZM223.869 551.784H225.517V566.232H223.869V551.784Z" fill="white"/>
<circle cx="296" cy="559" r="18" fill="white"/>
<path d="M285.635 569L285.635 548.635L306 548.635L306 569L285.635 569Z" fill="white" fill-opacity="0.01"/>
<path d="M303.454 558.817L288.18 558.817" stroke="#444546" stroke-width="2" stroke-linecap="round" stroke-linejoin="round"/>
<path d="M298.363 553.726L303.454 558.817L298.363 563.909" stroke="#444546" stroke-width="2" stroke-linecap="round" stroke-linejoin="round"/>
<path d="M179.7 260.292C195.556 260.292 208.409 255.983 208.409 250.668C208.409 245.353 195.556 241.044 179.7 241.044C163.845 241.044 150.992 245.353 150.992 250.668C150.992 255.983 163.845 260.292 179.7 260.292Z" fill="#E5E5E5"/>
<path d="M162.396 238.338L159.061 246.061C158.277 249.269 161.485 249.58 164.792 249.58H169.059C172.924 249.58 173.207 246.591 173.469 242.733L173.709 239.179C173.815 237.582 172.55 236.232 170.953 236.232H165.074C163.802 236.232 162.693 237.101 162.389 238.338H162.396Z" fill="white" stroke="#172226" stroke-width="3" stroke-miterlimit="10"/>
<path d="M197.733 238.338L201.068 246.061C201.852 249.269 198.644 249.58 195.337 249.58H191.069C187.204 249.58 186.922 246.591 186.66 242.733L186.42 239.179C186.314 237.582 187.579 236.232 189.176 236.232H195.055C196.326 236.232 197.436 237.101 197.74 238.338H197.733Z" fill="white" stroke="#172226" stroke-width="3" stroke-miterlimit="10"/>
<path d="M220.541 202.062C220.541 223.591 202.417 241.044 180.061 241.044C157.704 241.044 139.58 223.591 139.58 202.062C139.58 180.532 157.704 150 180.061 150C202.417 150 220.541 180.525 220.541 202.062Z" fill="white" stroke="#172226" stroke-width="3" stroke-miterlimit="10"/>
<path d="M180.061 231.399C194.59 231.399 206.367 219.621 206.367 205.093C206.367 190.564 194.59 178.786 180.061 178.786C165.532 178.786 153.755 190.564 153.755 205.093C153.755 219.621 165.532 231.399 180.061 231.399Z" fill="#FFF361" stroke="#172226" stroke-width="3" stroke-miterlimit="10"/>
<path d="M146.802 210.887C145.078 213.233 140.11 215.981 140.11 215.981C137.093 217.543 136.047 221.535 137.786 224.891C139.524 228.248 143.382 229.703 146.399 228.142L150.412 226.064" fill="white"/>
<path d="M146.802 210.887C145.078 213.233 140.11 215.981 140.11 215.981C137.093 217.543 136.047 221.535 137.786 224.891C139.524 228.248 143.382 229.703 146.399 228.142L150.412 226.064" stroke="#172226" stroke-width="3" stroke-miterlimit="10" stroke-linecap="round"/>
<path d="M213.143 210.887C214.867 213.233 219.835 215.981 219.835 215.981C222.852 217.543 223.898 221.535 222.159 224.891C220.421 228.248 216.563 229.703 213.546 228.142L209.533 226.064" fill="white"/>
<path d="M213.143 210.887C214.867 213.233 219.835 215.981 219.835 215.981C222.852 217.543 223.898 221.535 222.159 224.891C220.421 228.248 216.563 229.703 213.546 228.142L209.533 226.064" stroke="#172226" stroke-width="3" stroke-miterlimit="10" stroke-linecap="round"/>
<path d="M194.122 162.888C194.786 163.022 199.584 165.7 201.181 169.735" stroke="#FFF3D4" stroke-width="5" stroke-miterlimit="10" stroke-linecap="round"/>
<path d="M204.099 176.836C205.005 176.836 205.739 176.102 205.739 175.197C205.739 174.292 205.005 173.558 204.099 173.558C203.194 173.558 202.46 174.292 202.46 175.197C202.46 176.102 203.194 176.836 204.099 176.836Z" fill="#FFF3D4"/>
<path d="M195.33 215.14C198.843 215.14 201.69 212.293 201.69 208.781C201.69 205.269 198.843 202.422 195.33 202.422C191.818 202.422 188.971 205.269 188.971 208.781C188.971 212.293 191.818 215.14 195.33 215.14Z" fill="#FFE161"/>
<path d="M165.307 215.14C168.819 215.14 171.667 212.293 171.667 208.781C171.667 205.269 168.819 202.422 165.307 202.422C161.795 202.422 158.948 205.269 158.948 208.781C158.948 212.293 161.795 215.14 165.307 215.14Z" fill="#FFE161"/>
<path d="M166.551 205.743L173.052 202.676" stroke="#172226" stroke-width="3" stroke-miterlimit="10" stroke-linecap="round"/>
<path d="M193.571 205.743L187.077 202.676" stroke="#172226" stroke-width="3" stroke-miterlimit="10" stroke-linecap="round"/>
<path d="M180.061 205.262C180.061 205.262 179.821 207.008 177.475 206.944L180.061 205.262Z" fill="white"/>
<path d="M180.061 205.262C180.061 205.262 179.821 207.008 177.475 206.944" stroke="#172226" stroke-width="2" stroke-linecap="round" stroke-linejoin="round"/>
<path d="M180.061 205.262C180.061 205.262 180.301 207.008 182.647 206.944L180.061 205.262Z" fill="white"/>
<path d="M180.061 205.262C180.061 205.262 180.301 207.008 182.647 206.944" stroke="#172226" stroke-width="2" stroke-linecap="round" stroke-linejoin="round"/>
<defs>
<linearGradient id="paint0_linear_353_3239" x1="27" y1="354.262" x2="95.3803" y2="354.262" gradientUnits="userSpaceOnUse">
<stop stop-color="#FE4238"/>
<stop offset="1" stop-color="#FF6538"/>
</linearGradient>
<linearGradient id="paint1_linear_353_3239" x1="28" y1="558.869" x2="344" y2="558.869" gradientUnits="userSpaceOnUse">
<stop stop-color="#FE4238"/>
<stop offset="1" stop-color="#FF6538"/>
</linearGradient>
</defs>
</svg>
