<?xml version="1.0" encoding="UTF-8"?>
<svg id="_레이어_2" data-name="레이어 2" xmlns="http://www.w3.org/2000/svg" viewBox="0 0 94.04 119.67">
  <defs>
    <style>
      .cls-1 {
        stroke-linejoin: round;
        stroke-width: 2px;
      }

      .cls-1, .cls-2 {
        stroke-linecap: round;
      }

      .cls-1, .cls-2, .cls-3 {
        fill: #fff;
        stroke: #172226;
      }

      .cls-2, .cls-3 {
        stroke-miterlimit: 10;
        stroke-width: 3px;
      }

      .cls-4 {
        fill: #fff9d9;
      }
    </style>
  </defs>
  <g id="_레이어_1-2" data-name="레이어 1">
    <g>
      <g>
        <path class="cls-3" d="M27.56,102.26l-4.72,10.93c-1.11,4.54,3.43,4.98,8.11,4.98h6.04c5.47,0,5.87-4.23,6.24-9.69l.34-5.03c.15-2.26-1.64-4.17-3.9-4.17h-8.32c-1.8,0-3.37,1.23-3.8,2.98Z"/>
        <path class="cls-3" d="M66.48,102.26l4.72,10.93c1.11,4.54-3.43,4.98-8.11,4.98h-6.04c-5.47,0-5.87-4.23-6.24-9.69l-.34-5.03c-.15-2.26,1.64-4.17,3.9-4.17h8.32c1.8,0,3.37,1.23,3.8,2.98Z"/>
      </g>
      <path class="cls-3" d="M92.54,58.58c0,29.72-20.38,48.33-45.52,48.33S1.5,88.29,1.5,58.58,21.88,1.5,47.02,1.5s45.52,27.36,45.52,57.08Z"/>
      <g>
        <g>
          <circle class="cls-4" cx="24.33" cy="58.31" r="10.09"/>
          <line class="cls-2" x1="27.9" y1="51.8" x2="37.1" y2="47.46"/>
        </g>
        <g>
          <circle class="cls-4" cx="69.72" cy="58.31" r="10.09"/>
          <line class="cls-2" x1="66.14" y1="51.8" x2="56.95" y2="47.46"/>
        </g>
        <g>
          <path class="cls-1" d="M47.02,51.11s-.34,2.47-3.66,2.38"/>
          <path class="cls-1" d="M47.02,51.11s.34,2.47,3.66,2.38"/>
        </g>
      </g>
      <path class="cls-2" d="M15.92,62.82c3.06,1.51,9.73,1.7,9.73,1.7,4,0,7.23,3.6,7.23,8.04s-3.24,8.04-7.23,8.04h-5.31"/>
      <path class="cls-2" d="M78.12,62.66c-3.06,1.51-9.73,1.7-9.73,1.7-4,0-7.23,3.6-7.23,8.04s3.24,8.04,7.23,8.04h5.31"/>
    </g>
  </g>
</svg>