<?xml version="1.0" encoding="UTF-8"?>
<svg id="_레이어_2" data-name="레이어 2" xmlns="http://www.w3.org/2000/svg" viewBox="0 0 94.04 119.67">
  <defs>
    <style>
      .cls-1 {
        opacity: .97;
      }

      .cls-2 {
        fill: #c0f2ff;
        stroke: #00aed6;
      }

      .cls-2, .cls-3, .cls-4 {
        stroke-miterlimit: 10;
      }

      .cls-2, .cls-3, .cls-5 {
        stroke-linecap: round;
      }

      .cls-3, .cls-4 {
        stroke-width: 3px;
      }

      .cls-3, .cls-4, .cls-5 {
        fill: #fff;
        stroke: #172226;
      }

      .cls-6 {
        fill: #fff9d9;
        stroke-width: 0px;
      }

      .cls-5 {
        stroke-linejoin: round;
        stroke-width: 2px;
      }
    </style>
  </defs>
  <g id="_레이어_1-2" data-name="레이어 1">
    <g class="cls-1">
      <g>
        <g>
          <path class="cls-4" d="M27.56,102.26l-4.72,10.93c-1.11,4.54,3.43,4.98,8.11,4.98h6.04c5.47,0,5.87-4.23,6.24-9.69l.34-5.03c.15-2.26-1.64-4.17-3.9-4.17h-8.32c-1.8,0-3.37,1.23-3.8,2.98Z"/>
          <path class="cls-4" d="M66.48,102.26l4.72,10.93c1.11,4.54-3.43,4.98-8.11,4.98h-6.04c-5.47,0-5.87-4.23-6.24-9.69l-.34-5.03c-.15-2.26,1.64-4.17,3.9-4.17h8.32c1.8,0,3.37,1.23,3.8,2.98Z"/>
        </g>
        <path class="cls-4" d="M92.54,58.58c0,29.72-20.38,48.33-45.52,48.33S1.5,88.29,1.5,58.58,21.88,1.5,47.02,1.5s45.52,27.36,45.52,57.08Z"/>
        <g>
          <g>
            <circle class="cls-6" cx="24.33" cy="55.63" r="10.09"/>
            <line class="cls-3" x1="27.9" y1="49.12" x2="37.1" y2="44.78"/>
          </g>
          <g>
            <circle class="cls-6" cx="69.72" cy="55.67" r="10.09"/>
            <line class="cls-3" x1="66.14" y1="49.16" x2="56.95" y2="44.82"/>
          </g>
          <g>
            <path class="cls-5" d="M47.02,47.97s-.34,2.47-3.66,2.38"/>
            <path class="cls-5" d="M47.02,47.97s.34,2.47,3.66,2.38"/>
          </g>
        </g>
        <path class="cls-3" d="M23.22,63.99c3.4.36,9.72-1.76,9.72-1.76,3.75-1.38,8.03.88,9.56,5.05,1.53,4.17-.27,8.67-4.02,10.04l-4.98,1.83"/>
        <path class="cls-3" d="M68.08,63.18c-3.36.63-9.83-.99-9.83-.99-3.85-1.08-7.94,1.51-9.14,5.79-1.2,4.28.95,8.62,4.79,9.7l5.11,1.43"/>
        <g>
          <path class="cls-2" d="M76.76,7.32l1.5-1.45c1.01-.98,2.63-.95,3.61.06h0c.98,1.01.95,2.63-.06,3.61l-1.5,1.45"/>
          <path class="cls-2" d="M83.91,14.64l1.5-1.45c1.01-.98,2.63-.95,3.61.06h0c.98,1.01.95,2.63-.06,3.61l-1.5,1.45"/>
          <path class="cls-2" d="M85.69,6.37l1.5-1.45c1.01-.98,2.63-.95,3.61.06h0c.98,1.01.95,2.63-.06,3.61l-1.5,1.45"/>
        </g>
      </g>
    </g>
  </g>
</svg>