<?xml version="1.0" encoding="UTF-8"?>
<svg id="_레이어_2" data-name="레이어 2" xmlns="http://www.w3.org/2000/svg" viewBox="0 0 124.79 143.93">
  <defs>
    <style>
      .cls-1 {
        fill: #fff3d4;
      }

      .cls-2 {
        stroke-linejoin: round;
        stroke-width: 2px;
      }

      .cls-2, .cls-3, .cls-4, .cls-5 {
        fill: #fff;
      }

      .cls-2, .cls-4, .cls-6 {
        stroke-linecap: round;
      }

      .cls-2, .cls-4, .cls-7, .cls-5 {
        stroke: #172226;
      }

      .cls-8 {
        fill: #172226;
      }

      .cls-9 {
        fill: #ffe161;
      }

      .cls-4, .cls-6, .cls-7, .cls-5 {
        stroke-miterlimit: 10;
      }

      .cls-4, .cls-7, .cls-5 {
        stroke-width: 3px;
      }

      .cls-6 {
        fill: none;
        stroke: #fff3d4;
        stroke-width: 5px;
      }

      .cls-7 {
        fill: #fff361;
      }
    </style>
  </defs>
  <g id="_레이어_1-2" data-name="레이어 1">
    <g>
      <g>
        <path class="cls-5" d="M37.52,126.52l-4.72,10.93c-1.11,4.54,3.43,4.98,8.11,4.98h6.04c5.47,0,5.87-4.23,6.24-9.69l.34-5.03c.15-2.26-1.64-4.17-3.9-4.17h-8.32c-1.8,0-3.37,1.23-3.8,2.98Z"/>
        <path class="cls-5" d="M87.53,126.52l4.72,10.93c1.11,4.54-3.43,4.98-8.11,4.98h-6.04c-5.47,0-5.87-4.23-6.24-9.69l-.34-5.03c-.15-2.26,1.64-4.17,3.9-4.17h8.32c1.8,0,3.37,1.23,3.8,2.98Z"/>
      </g>
      <path class="cls-5" d="M119.81,75.18c0,30.47-25.65,55.17-57.29,55.17S5.23,105.65,5.23,75.18,30.88,1.5,62.52,1.5s57.29,43.2,57.29,73.68Z"/>
      <circle class="cls-7" cx="62.52" cy="79.47" r="37.23"/>
      <g>
        <circle class="cls-9" cx="83.26" cy="84.69" r="9"/>
        <circle class="cls-9" cx="40.76" cy="84.69" r="9"/>
        <g>
          <path class="cls-2" d="M61.65,79.71s-.34,2.47-3.66,2.38"/>
          <path class="cls-2" d="M61.65,79.71s.34,2.47,3.66,2.38"/>
        </g>
      </g>
      <path class="cls-4" d="M15.45,87.67c-2.44,3.32-9.47,7.21-9.47,7.21-4.27,2.21-5.75,7.86-3.29,12.61s7.92,6.81,12.19,4.6l5.68-2.94"/>
      <path class="cls-4" d="M109.34,87.67c2.44,3.32,9.47,7.21,9.47,7.21,4.27,2.21,5.75,7.86,3.29,12.61s-7.92,6.81-12.19,4.6l-5.68-2.94"/>
      <path class="cls-6" d="M82.42,19.74c.94.19,7.73,3.98,9.99,9.69"/>
      <circle class="cls-1" cx="96.54" cy="37.16" r="2.32"/>
      <g>
        <circle class="cls-8" cx="75.13" cy="77.46" r="4.63"/>
        <circle class="cls-3" cx="77.42" cy="75.96" r="1.18"/>
      </g>
      <g>
        <circle class="cls-8" cx="49.09" cy="77.46" r="4.63"/>
        <circle class="cls-3" cx="51.29" cy="76.03" r="1.17"/>
      </g>
    </g>
  </g>
</svg>