<?xml version="1.0" encoding="UTF-8"?>
<svg id="_레이어_2" data-name="레이어 2" xmlns="http://www.w3.org/2000/svg" viewBox="0 0 119.65 141.85">
  <defs>
    <style>
      .cls-1 {
        fill: none;
      }

      .cls-1, .cls-2, .cls-3, .cls-4, .cls-5 {
        stroke: #172226;
        stroke-miterlimit: 10;
        stroke-width: 3px;
      }

      .cls-1, .cls-5 {
        stroke-linecap: round;
      }

      .cls-6 {
        fill: #172226;
      }

      .cls-7 {
        fill: #fff;
      }

      .cls-2 {
        fill: #ff8352;
      }

      .cls-3, .cls-5 {
        fill: #fff361;
      }

      .cls-4 {
        fill: #ff9750;
      }

      .cls-8 {
        fill: #f9875a;
        opacity: .7;
      }
    </style>
  </defs>
  <g id="_레이어_1-2" data-name="레이어 1">
    <g>
      <g>
        <path class="cls-2" d="M36.9,129.39s-9.75,2.98-8.87,8.12,21.66,2.37,21.22-1.17c-.44-3.54-12.35-6.95-12.35-6.95Z"/>
        <path class="cls-2" d="M84.51,128.4s9.75,2.98,8.87,8.12c-.88,5.15-21.66,2.37-21.22-1.17s12.35-6.95,12.35-6.95Z"/>
      </g>
      <g>
        <path class="cls-1" d="M57.07,13.84s-4.61-9.67,3.63-12.34"/>
        <path class="cls-1" d="M60.61,14.53s-1.85-7.4,2.97-8.73"/>
      </g>
      <path class="cls-5" d="M100.17,85.43s4.99,10.47,13.84,13.87c8.85,3.4,2.84,18.42-12.02,14.48l-5.34-1.55"/>
      <path class="cls-5" d="M19.47,85.43s-4.99,10.47-13.84,13.87c-8.85,3.4-2.84,18.42,12.02,14.48l5.34-1.55"/>
      <path class="cls-3" d="M110.28,58.15c0-24.84-22.53-44.98-50.32-44.98S9.63,33.31,9.63,58.15c0,8.92,2.91,16.51,7.93,22.58,2.4,2.91,2.84,6.9,1.44,10.4-1.64,4.09-2.54,8.5-2.54,13.1,0,21.47,19.47,31.4,43.5,31.4s43.5-9.93,43.5-31.4c0-4.6-.9-9.01-2.54-13.1-1.4-3.5-.96-7.49,1.44-10.4,5.02-6.07,7.93-13.66,7.93-22.58Z"/>
      <ellipse class="cls-8" cx="92.09" cy="63.38" rx="10.09" ry="6.68"/>
      <ellipse class="cls-8" cx="27.19" cy="63.38" rx="10.09" ry="6.68"/>
      <g>
        <circle class="cls-6" cx="77.3" cy="56.7" r="4.7"/>
        <circle class="cls-7" cx="79.6" cy="55.08" r="1.24"/>
        <circle class="cls-6" cx="41.66" cy="56.7" r="4.7"/>
        <circle class="cls-7" cx="43.9" cy="55.08" r="1.24"/>
        <ellipse class="cls-4" cx="59.15" cy="64.24" rx="12.79" ry="7.17"/>
        <path class="cls-5" d="M53.64,64.24h0c3.63.85,7.4.85,11.03,0h0"/>
      </g>
    </g>
  </g>
</svg>