<?xml version="1.0" encoding="UTF-8"?>
<svg id="_레이어_2" data-name="레이어 2" xmlns="http://www.w3.org/2000/svg" viewBox="0 0 140.68 160.19">
  <defs>
    <style>
      .cls-1 {
        fill: #172226;
      }

      .cls-2, .cls-3, .cls-4 {
        fill: #fff;
      }

      .cls-5 {
        fill: #ff8352;
      }

      .cls-5, .cls-6, .cls-7, .cls-3, .cls-8, .cls-4, .cls-9 {
        stroke-width: 3px;
      }

      .cls-5, .cls-6, .cls-7, .cls-8, .cls-4, .cls-9 {
        stroke: #172226;
      }

      .cls-5, .cls-8, .cls-4, .cls-9 {
        stroke-miterlimit: 10;
      }

      .cls-6 {
        fill: none;
      }

      .cls-6, .cls-7, .cls-3 {
        stroke-linejoin: round;
      }

      .cls-6, .cls-7, .cls-3, .cls-9 {
        stroke-linecap: round;
      }

      .cls-7 {
        fill: #f24e38;
      }

      .cls-3 {
        stroke: #444546;
      }

      .cls-8 {
        fill: #ff9750;
      }

      .cls-9 {
        fill: #fff361;
      }
    </style>
  </defs>
  <g id="_레이어_1-2" data-name="레이어 1">
    <g>
      <g>
        <path class="cls-5" d="M39.26,144.59s-12.54,3.83-11.41,10.45c1.13,6.62,27.88,3.05,27.31-1.51s-15.9-8.95-15.9-8.95Z"/>
        <path class="cls-5" d="M100.54,143.32s12.54,3.83,11.41,10.45c-1.13,6.62-27.88,3.05-27.31-1.51.57-4.56,15.9-8.95,15.9-8.95Z"/>
      </g>
      <path class="cls-4" d="M24.21,97.05s-6.31,13.22-17.49,17.53c-11.18,4.3-3.59,23.27,15.19,18.3l6.74-1.96"/>
      <path class="cls-4" d="M116.46,97.05s6.31,13.22,17.49,17.53c11.18,4.3,3.59,23.27-15.19,18.3l-6.74-1.96"/>
      <path class="cls-4" d="M127.65,65.86c0-28.51-25.85-51.61-57.75-51.61S12.15,37.35,12.15,65.86c0,10.24,3.34,18.95,9.1,25.91,2.76,3.33,3.26,7.92,1.65,11.93-1.89,4.7-2.91,9.76-2.91,15.04,0,24.64,22.35,36.03,49.91,36.03s49.91-11.39,49.91-36.03c0-5.28-1.03-10.34-2.91-15.04-1.61-4.01-1.11-8.6,1.65-11.93,5.76-6.96,9.1-15.67,9.1-25.91Z"/>
      <g>
        <g>
          <ellipse class="cls-8" cx="69.57" cy="65.67" rx="12.79" ry="7.17"/>
          <line class="cls-9" x1="64.06" y1="65.67" x2="75.09" y2="65.67"/>
        </g>
        <g>
          <circle class="cls-1" cx="52.08" cy="58.13" r="4.7"/>
          <circle class="cls-1" cx="87.72" cy="58.13" r="4.7"/>
          <circle class="cls-2" cx="54.32" cy="56.51" r="1.24"/>
          <circle class="cls-2" cx="90.02" cy="56.51" r="1.24"/>
        </g>
      </g>
      <path class="cls-7" d="M86.58,4.1h0c-3.46-3.46-9.08-3.46-12.55,0l-1.89,1.89c-1.42,1.42-3.71,1.42-5.13,0l-1.89-1.89c-3.46-3.46-9.08-3.46-12.55,0h0c-3.46,3.46-3.46,9.08,0,12.55l4.46,4.46h0s10.36,10.37,10.36,10.37c1.21,1.21,3.17,1.21,4.38,0l10.37-10.36h0s4.46-4.47,4.46-4.47c3.46-3.46,3.46-9.08,0-12.55Z"/>
      <path class="cls-6" d="M61.63,102.59c-3.36,0-6.08,2.72-6.08,6.08s2.72,6.08,6.08,6.08c.45,0,.88-.05,1.3-.14.1.31.23.61.41.89,1.13,1.72,3.44,2.21,5.17,1.08"/>
      <line class="cls-3" x1="48.68" y1="49.73" x2="53.7" y2="49.73"/>
      <line class="cls-3" x1="90.23" y1="49.73" x2="85.21" y2="49.73"/>
    </g>
  </g>
</svg>