<?xml version="1.0" encoding="UTF-8"?>
<svg id="_레이어_2" data-name="레이어 2" xmlns="http://www.w3.org/2000/svg" viewBox="0 0 179.79 194.86">
  <defs>
    <style>
      .cls-1 {
        fill: #f7a73c;
        opacity: .7;
      }

      .cls-2 {
        fill: #172226;
      }

      .cls-3 {
        stroke-width: 2px;
      }

      .cls-3, .cls-4 {
        fill: #f75631;
      }

      .cls-3, .cls-4, .cls-5, .cls-6, .cls-7, .cls-8, .cls-9 {
        stroke: #172226;
        stroke-miterlimit: 10;
      }

      .cls-10 {
        fill: #fff;
      }

      .cls-4, .cls-5, .cls-6, .cls-7, .cls-8, .cls-9 {
        stroke-width: 3px;
      }

      .cls-5 {
        fill: #f9c33d;
      }

      .cls-6 {
        fill: #d85836;
      }

      .cls-7 {
        fill: #f4a531;
      }

      .cls-8 {
        fill: #ff8103;
      }

      .cls-9 {
        fill: #fff361;
        stroke-linecap: round;
      }
    </style>
  </defs>
  <g id="_레이어_1-2" data-name="레이어 1">
    <g>
      <g>
        <path class="cls-7" d="M48.68,116.69s-27.64,5.32-40.69,6.87c-11.44,1.36-8.23,22.11,13.22,24.9.79.1,1.47.6,1.78,1.33,1.31,3.05,5.76,10.51,16.23,3.99,12.91-8.04,17.67-33.97,17.67-33.97l-8.22-3.12Z"/>
        <path class="cls-7" d="M131.11,116.69s27.64,5.32,40.69,6.87c11.44,1.36,8.23,22.11-13.22,24.9-.79.1-1.47.6-1.78,1.33-1.31,3.05-5.76,10.51-16.23,3.99-12.91-8.04-17.67-33.97-17.67-33.97l8.22-3.12Z"/>
        <path class="cls-4" d="M64.74,30.85l7.17,1.07c12.43,1.86,25.09,1.58,37.43-.82l6.15-1.2c.3,0,.56-.2.65-.48l5.94-18.66c.43-1.35-1.19-2.39-2.25-1.44-3.41,3.06-8.6,6.52-14.1,5.87-8.54-1-12.1-6.9-15.07-12.95-.49-1-1.91-.98-2.38.02-2,4.32-6.75,12.5-14.64,13.96,0,0-6.79,1.35-14.32-5.46-.99-.9-2.52.12-2.05,1.37l6.79,18.26c.1.28.37.46.66.45Z"/>
        <g>
          <path class="cls-6" d="M59.86,179.26s-12.54,3.83-11.41,10.45,27.88,3.05,27.31-1.51-15.9-8.95-15.9-8.95Z"/>
          <path class="cls-6" d="M121.13,177.99s12.54,3.83,11.41,10.45c-1.13,6.62-27.88,3.05-27.31-1.51.57-4.56,15.9-8.95,15.9-8.95Z"/>
        </g>
        <path class="cls-8" d="M151.79,85.23c0-33.36-27.44-60.41-61.29-60.41s-61.29,27.05-61.29,60.41c0,11.98,3.55,22.18,9.66,30.33,2.92,3.9,3.46,9.27,1.75,13.96-2,5.5-3.09,11.42-3.09,17.6,0,28.84,23.72,42.17,52.98,42.17s52.98-13.33,52.98-42.17c0-6.18-1.09-12.1-3.09-17.6-1.71-4.7-1.17-10.06,1.75-13.96,6.11-8.15,9.66-18.34,9.66-30.33Z"/>
        <g>
          <circle class="cls-2" cx="72.68" cy="70.07" r="4.7"/>
          <circle class="cls-2" cx="108.32" cy="70.07" r="4.7"/>
          <circle class="cls-10" cx="74.92" cy="68.45" r="1.24"/>
          <circle class="cls-10" cx="110.62" cy="68.45" r="1.24"/>
        </g>
        <ellipse class="cls-3" cx="105.25" cy="56.02" rx="6.33" ry="3.15" transform="translate(-10.41 27.07) rotate(-13.97)"/>
        <ellipse class="cls-3" cx="75.74" cy="56.02" rx="3.15" ry="6.33" transform="translate(3.09 115.99) rotate(-76.03)"/>
        <g>
          <ellipse class="cls-5" cx="90.17" cy="77.6" rx="12.79" ry="7.17"/>
          <line class="cls-9" x1="84.66" y1="77.6" x2="95.68" y2="77.6"/>
        </g>
      </g>
      <circle class="cls-1" cx="55.36" cy="80.82" r="11.13"/>
      <circle class="cls-1" cx="125.31" cy="80.82" r="11.13"/>
    </g>
  </g>
</svg>