<?xml version="1.0" encoding="UTF-8"?>
<svg xmlns="http://www.w3.org/2000/svg" xmlns:xlink="http://www.w3.org/1999/xlink" viewBox="0 0 213.04 429.61">
  <defs>
    <style>
      .cls-1 {
        fill: url(#linear-gradient);
      }

      .cls-1, .cls-2, .cls-3, .cls-4, .cls-5, .cls-6, .cls-7, .cls-8, .cls-9, .cls-10 {
        stroke-width: 0px;
      }

      .cls-11 {
        isolation: isolate;
      }

      .cls-2 {
        fill: #bababa;
      }

      .cls-3 {
        fill: none;
      }

      .cls-4 {
        fill: #ccc6cc;
      }

      .cls-5 {
        fill: #e5e5e5;
      }

      .cls-6 {
        fill: #cecece;
      }

      .cls-7 {
        fill: #1d1d1b;
      }

      .cls-8 {
        fill: #c6c6c6;
      }

      .cls-12 {
        clip-path: url(#clippath);
      }

      .cls-9, .cls-10 {
        fill: #fff;
      }

      .cls-10 {
        mix-blend-mode: screen;
      }

      .cls-13 {
        mix-blend-mode: multiply;
      }
    </style>
    <linearGradient id="linear-gradient" x1="-1294.43" y1="1732.55" x2="-1261.64" y2="1732.55" gradientTransform="translate(-1732.37 1434.57) rotate(90) scale(1 -1)" gradientUnits="userSpaceOnUse">
      <stop offset="0" stop-color="#676067"/>
      <stop offset=".06" stop-color="#654e63"/>
      <stop offset=".19" stop-color="#786f77"/>
      <stop offset=".81" stop-color="#786f77"/>
      <stop offset=".92" stop-color="#654e63"/>
      <stop offset="1" stop-color="#676067"/>
    </linearGradient>
    <clipPath id="clippath">
      <path class="cls-3" d="M159.69,10.13h16.35c13.29,0,24.05,10.77,24.05,24.05v361.24c0,13.29-10.77,24.05-24.05,24.05H35.15c-13.29,0-24.05-10.77-24.05-24.05V34.18c0-13.29,10.77-24.05,24.05-24.05h124.54Z"/>
    </clipPath>
  </defs>
  <g class="cls-11">
    <g id="_레이어_2" data-name="레이어 2">
      <g id="Layer_1" data-name="Layer 1" class="cls-13">
        <rect class="cls-4" x="1.8" width="209.4" height="429.61" rx="33.57" ry="33.57"/>
        <path class="cls-10" d="M177.37,1H35.63C17.5,1,2.8,15.7,2.8,33.83v361.94c0,18.13,14.7,32.83,32.83,32.83h141.74c18.13,0,32.83-14.7,32.83-32.83V33.83c0-18.13-14.7-32.83-32.83-32.83ZM209.2,395.51c0,17.73-14.37,32.1-32.1,32.1H35.9c-17.73,0-32.1-14.37-32.1-32.1V34.1C3.8,16.37,18.17,2,35.9,2h141.21c17.73,0,32.1,14.37,32.1,32.1v361.42Z"/>
        <rect class="cls-7" x="5.35" y="3.28" width="202.31" height="423.05" rx="30.87" ry="30.87"/>
        <path class="cls-9" d="M160.6,10.13h16.35c13.29,0,24.05,10.77,24.05,24.05v361.24c0,13.29-10.77,24.05-24.05,24.05H36.06c-13.29,0-24.05-10.77-24.05-24.05V34.18c0-13.29,10.77-24.05,24.05-24.05h124.54Z"/>
        <g>
          <g>
            <rect class="cls-6" x="211.2" y="109.76" width="1.23" height="51.78"/>
            <path class="cls-9" d="M212.43,161.55v-51.77l.61.67c-.31,5.51-.29,44.92,0,50.42l-.61.67Z"/>
          </g>
          <g>
            <rect class="cls-8" x=".35" y="98.87" width=".7" height="32.8"/>
            <path class="cls-9" d="M.35,131.67v-32.79l-.35.43c.18,3.49.16,28.46,0,31.94l.35.43Z"/>
            <rect class="cls-6" x="1.05" y="98.87" width=".75" height="32.8"/>
          </g>
          <g>
            <rect class="cls-5" x=".35" y="140.13" width=".7" height="32.8"/>
            <path class="cls-1" d="M.35,172.93v-32.79l-.35.43c.18,3.49.16,28.46,0,31.94l.35.43Z"/>
            <rect class="cls-2" x="1.05" y="140.14" width=".75" height="32.8"/>
          </g>
          <g>
            <rect class="cls-9" x=".43" y="67.88" width=".7" height="16.84"/>
            <path class="cls-9" d="M.35,84.71v-16.83l-.35.4c.18,3.3.16,12.73,0,16.02l.35.4Z"/>
            <rect class="cls-2" x="1.05" y="67.88" width=".75" height="16.84"/>
          </g>
        </g>
        <g class="cls-12">
          <image width="360" height="814" transform="translate(9.63 16.74) scale(.53 .49)" xlink:href="../1x/appImage4.png"/>
        </g>
      </g>
    </g>
  </g>
</svg>